<?xml version="1.0" encoding="iso-8859-1"?>
<!-- Generator: Adobe Illustrator 19.0.0, SVG Export Plug-In . SVG Version: 6.00 Build 0)  -->
<svg version="1.1" id="Capa_1" xmlns="http://www.w3.org/2000/svg" xmlns:xlink="http://www.w3.org/1999/xlink" x="0px" y="0px"
	 viewBox="0 0 512 512" style="enable-background:new 0 0 512 512;" xml:space="preserve">
<circle style="fill:#005C83;" cx="256" cy="256" r="256"/>
<path style="fill:#00263F;" d="M512,256c0-6.595-0.251-13.131-0.74-19.6L375.01,100.803L136.5,406.5l105.088,105.088
	C246.36,511.853,251.162,512,256,512C397.385,512,512,397.385,512,256z"/>
<path style="fill:#C99400;" d="M355,354.667h-41.333V157.333H355c54.405,0,98.667,44.262,98.667,98.667S409.405,354.667,355,354.667
	z M353.667,314.667H355c32.349,0,58.667-26.318,58.667-58.667S387.349,197.333,355,197.333h-1.333V314.667z"/>
<rect x="136.5" y="155" style="fill:#FFDC00;" width="239" height="251.5"/>
<g>
	<rect x="255.67" y="155" style="fill:#FFC000;" width="119.83" height="251.5"/>
	<path style="fill:#FFC000;" d="M199,377L199,377c-15.74,0-28.5-12.76-28.5-28.5V222c0-15.74,12.76-28.5,28.5-28.5l0,0
		c15.74,0,28.5,12.76,28.5,28.5v126.5C227.5,364.24,214.74,377,199,377z"/>
</g>
<path style="fill:#C99400;" d="M313,377L313,377c-15.74,0-28.5-12.76-28.5-28.5V222c0-15.74,12.76-28.5,28.5-28.5l0,0
	c15.74,0,28.5,12.76,28.5,28.5v126.5C341.5,364.24,328.74,377,313,377z"/>
<path style="fill:#FFFFFF;" d="M383.649,121c-0.377-16.01-13.465-28.875-29.565-28.875c-3.166,0-6.215,0.498-9.074,1.419
	c-8.575,2.764-17.892,0.569-24.933-5.051C306.087,77.326,282.612,70,256,70s-50.087,7.326-64.076,18.493
	c-7.042,5.621-16.358,7.815-24.933,5.051c-2.859-0.921-5.908-1.419-9.074-1.419c-16.101,0-29.188,12.865-29.565,28.875h-0.018
	v105.583c0,11.644,9.439,21.083,21.083,21.083l0,0c11.644,0,21.083-9.439,21.083-21.083v-33c0-11,8.917-19.917,19.917-19.917l0,0
	c11,0,19.917,8.917,19.917,19.917V206.5c0,10.954,8.88,19.833,19.833,19.833l0,0c10.954,0,19.833-8.88,19.833-19.833v-1.333
	c0-17.397,14.103-31.5,31.5-31.5l0,0c17.397,0,31.5,14.103,31.5,31.5v9.5C313,234.181,328.819,250,348.333,250l0,0
	c19.514,0,35.333-15.819,35.333-35.333V121H383.649z"/>
<path style="fill:#E0E0E0;" d="M383.649,121c-0.377-16.01-13.465-28.875-29.565-28.875c-3.166,0-6.215,0.498-9.074,1.419
	c-8.575,2.764-17.892,0.569-24.933-5.051C306.087,77.326,282.612,70,256,70c-0.112,0-0.221,0.005-0.333,0.006v117.145
	c5.694-8.149,15.138-13.484,25.833-13.484l0,0c17.397,0,31.5,14.103,31.5,31.5v9.5C313,234.181,328.819,250,348.333,250l0,0
	c19.514,0,35.333-15.819,35.333-35.333V121H383.649z"/>
<g>
</g>
<g>
</g>
<g>
</g>
<g>
</g>
<g>
</g>
<g>
</g>
<g>
</g>
<g>
</g>
<g>
</g>
<g>
</g>
<g>
</g>
<g>
</g>
<g>
</g>
<g>
</g>
<g>
</g>
</svg>
