<?xml version="1.0" encoding="iso-8859-1"?>
<!-- Generator: Adobe Illustrator 19.0.0, SVG Export Plug-In . SVG Version: 6.00 Build 0)  -->
<svg version="1.1" id="Layer_1" xmlns="http://www.w3.org/2000/svg" xmlns:xlink="http://www.w3.org/1999/xlink" x="0px" y="0px"
	 viewBox="0 0 512.006 512.006" style="enable-background:new 0 0 512.006 512.006;" xml:space="preserve">
<g>
	<path style="fill:#2C5871;" d="M437.024,74.984c99.973,99.973,99.973,262.062,0,362.04s-262.062,99.973-362.04,0
		s-99.973-262.062,0-362.04C174.962-24.995,337.051-24.995,437.024,74.984L437.024,74.984z"/>
	<path style="fill:#0F303F;" d="M370.705,131.918c-10.532-11.372-25.539-18.534-42.26-18.534c-31.836,0-57.646,25.81-57.646,57.646
		c0,1.009,0.097,1.987,0.148,2.98h-20.792l-0.046-0.225l-1.096,0.225h-1.357l-85.729-88.407l-15.478,3.195l17.592,85.212h-6.902
		h-21.171V389.08l122.824,122.824h1.183c64.184-0.988,128.072-25.907,177.05-74.885c45.757-45.757,70.502-104.53,74.378-164.403
		C510.701,271.899,371.795,132.932,370.705,131.918L370.705,131.918z"/>
	<circle style="fill:#C2D64A;" cx="328.454" cy="171.03" r="57.646"/>
	<circle style="fill:#FFFFFF;" cx="328.454" cy="171.03" r="49.485"/>
	<path style="fill:#C2D64A;" d="M338.126,129.583c-3.686-0.701-6.702,1.792-6.702,5.545v25.155c0,3.753,2.171,4.654,4.823,1.997
		l17.787-17.787c2.652-2.652,2.248-6.497-0.896-8.54L338.126,129.583z"/>
	<path style="fill:#C2D64A;" d="M305.983,134.872c-3.103,2.109-3.471,6.006-0.819,8.663l17.787,17.787
		c2.652,2.652,4.823,1.756,4.823-1.997v-25.155c0-3.753-3.005-6.185-6.676-5.402L305.983,134.872z"/>
	<path style="fill:#C2D64A;" d="M286.998,161.348c-0.701,3.686,1.792,6.702,5.545,6.702h25.155c3.753,0,4.654-2.171,1.997-4.823
		l-17.787-17.787c-2.652-2.652-6.497-2.248-8.54,0.896L286.998,161.348z"/>
	<path style="fill:#FC611F;" d="M292.287,193.491c2.109,3.103,6.006,3.471,8.663,0.819l17.787-17.787
		c2.652-2.652,1.756-4.823-1.997-4.823h-25.155c-3.753,0-6.185,3.005-5.402,6.676L292.287,193.491z"/>
	<path style="fill:#FC611F;" d="M318.757,212.476c3.686,0.701,6.702-1.792,6.702-5.545v-25.155c0-3.753-2.171-4.654-4.823-1.997
		l-17.787,17.787c-2.652,2.652-2.248,6.497,0.896,8.54L318.757,212.476z"/>
	<path style="fill:#C2D64A;" d="M350.9,207.187c3.103-2.109,3.471-6.006,0.819-8.663l-17.787-17.787
		c-2.652-2.652-4.823-1.756-4.823,1.997v25.155c0,3.753,3.005,6.185,6.676,5.402L350.9,207.187z"/>
	<path style="fill:#C2D64A;" d="M369.891,180.717c0.701-3.686-1.792-6.702-5.545-6.702h-25.155c-3.753,0-4.654,2.171-1.997,4.823
		l17.787,17.787c2.652,2.652,6.497,2.248,8.54-0.896L369.891,180.717z"/>
	<path style="fill:#C2D64A;" d="M364.596,148.568c-2.109-3.103-6.006-3.471-8.663-0.819l-17.787,17.787
		c-2.652,2.652-1.756,4.823,1.997,4.823h25.155c3.753,0,6.185-3.005,5.402-6.676L364.596,148.568z"/>
	<polygon style="fill:#A6DAE8;" points="329.11,389.08 135.968,389.08 135.968,174.01 329.11,174.01 	"/>
	<polygon style="fill:#9AC2D9;" points="329.11,389.08 232.536,389.08 232.536,174.01 329.11,174.01 	"/>
	<polygon style="fill:#FC611F;" points="318.67,354.935 146.449,354.935 146.449,213.495 318.67,213.495 	"/>
	<polygon style="fill:#E64500;" points="232.562,354.935 146.449,354.935 146.449,213.495 232.562,213.495 	"/>
	<path style="fill:#2C5871;" d="M295.169,379.567c-18.012-10.322-38.866-16.256-61.112-16.256c-22.252,0-43.1,5.934-61.112,16.256
		H295.169L295.169,379.567z"/>
	<polygon style="fill:#0F303F;" points="216.623,350.542 201.146,353.737 146.449,88.797 161.926,85.603 	"/>
	<polygon style="fill:#D3EDF4;" points="185.53,174.01 180.179,174.01 185.53,199.922 	"/>
	<path style="fill:#D3EDF4;" d="M185.53,354.935h-28.39v34.15h28.39v-9.513h-12.585c4.055-2.324,8.259-4.429,12.585-6.292V354.935
		L185.53,354.935z M164.041,174.01h-6.902v39.485h15.058L164.041,174.01L164.041,174.01z"/>
	<polygon style="fill:#F3A280;" points="172.192,213.495 157.139,213.495 157.139,354.935 185.53,354.935 185.53,346.303 
		172.94,315.429 185.53,310.299 185.53,278.089 	"/>
	<path style="fill:#96ACB8;" d="M185.53,373.275c-4.326,1.864-8.53,3.963-12.585,6.292h12.585V373.275L185.53,373.275z"/>
	<polygon style="fill:#87989F;" points="180.179,174.01 164.041,174.01 172.192,213.495 185.53,278.089 185.53,199.922 	"/>
	<path style="fill:#153040;" d="M232.306,363.368c-21.591,0.302-41.825,6.149-59.361,16.2h59.361L232.306,363.368L232.306,363.368z"
		/>
	<polygon style="fill:#FEB08F;" points="290.915,319.868 257.174,319.868 257.174,353.609 290.915,353.609 	"/>
	<polygon style="fill:#FEB08F;" points="237.907,290.116 232.562,295.83 232.562,331.306 239.505,337.798 262.55,313.161 	"/>
	<polygon style="fill:#F3A280;" points="232.562,295.83 214.862,314.753 232.562,331.306 	"/>
	<path style="fill:#F3A280;" d="M209.373,315.424l4.111,19.912l3.436-1.403L209.373,315.424L209.373,315.424z M191.663,307.8
		l-6.134,2.499v36.004l0.148,0.369l12.923-5.268L191.663,307.8L191.663,307.8z"/>
	<polygon style="fill:#87989F;" points="204.182,302.696 191.663,307.8 198.601,341.403 213.485,335.336 209.373,315.424 	"/>
	<polygon style="fill:#F9D1C0;" points="185.53,310.299 172.94,315.429 185.53,346.303 	"/>
</g>
<g>
</g>
<g>
</g>
<g>
</g>
<g>
</g>
<g>
</g>
<g>
</g>
<g>
</g>
<g>
</g>
<g>
</g>
<g>
</g>
<g>
</g>
<g>
</g>
<g>
</g>
<g>
</g>
<g>
</g>
</svg>
