<?xml version="1.0" encoding="iso-8859-1"?>
<!-- Generator: Adobe Illustrator 19.0.0, SVG Export Plug-In . SVG Version: 6.00 Build 0)  -->
<svg version="1.1" id="Layer_1" xmlns="http://www.w3.org/2000/svg" xmlns:xlink="http://www.w3.org/1999/xlink" x="0px" y="0px"
	 viewBox="0 0 512 512" style="enable-background:new 0 0 512 512;" xml:space="preserve">
<circle style="fill:#F6CE23;" cx="256" cy="256" r="256"/>
<path style="fill:#EA971E;" d="M347.499,44.555c-0.62-0.679-1.397-1.23-2.332-1.54c-2.912-0.973-6.066,0.608-7.037,3.524
	l-10.624,31.945c-2.302-2.509-5.111-4.427-8.377-5.512c-12.956-4.309-27.996,5.846-33.595,22.679
	c-5.599,16.835,9.35,36.962,22.305,41.271c0.062,0.021,0.14,0.047,0.209,0.07l-2.077,6.246h-19c0,0-77.774-77.722-77.784-77.738l0,0
	c-0.002,0.003-13.481,22.006-21.329,40.093c-12.448-4.44-31.337-9.257-43.675-11.803c15.49,54.217,23.394,61.589,33.576,65.288
	c-10.469,27.047-18.925,61.211-18.925,89.914c0,11.9,1.488,23.383,4.246,34.206c9.737,38.948,38.584,74.054,78.307,81.721
	c0.049,0.01,0.099,0.02,0.148,0.029v83.474h-44.163v25.994l36.681,36.657C241.297,511.687,248.599,512,256,512
	c141.385,0,256-114.616,256-256c0-17.941-1.843-35.439-5.355-52.339L347.509,44.525L347.499,44.555z"/>
<path style="fill:#E8F1F7;" d="M184.419,143.239c-15.896,34.651-25.584,75.343-25.584,105.752
	c0,64.874,44.091,117.464,98.481,117.464s98.481-52.59,98.481-117.464c0-30.411-9.688-71.101-25.584-105.752L184.419,143.239
	L184.419,143.239z"/>
<polygon style="fill:#C9E1F6;" points="273.096,448.421 273.096,300.262 241.537,300.262 241.537,448.421 197.374,448.421 
	197.374,474.415 316.952,474.415 316.952,448.421 "/>
<g>
	<path style="fill:#A2C8EA;" d="M330.213,143.239h-72.897v223.216c54.39,0,98.481-52.59,98.481-117.464
		C355.798,218.582,346.109,177.89,330.213,143.239z"/>
	<polygon style="fill:#A2C8EA;" points="316.952,448.421 273.096,448.421 273.096,300.262 257.317,300.262 257.317,474.415 
		316.952,474.415 	"/>
</g>
<path style="fill:#FDF7D0;" d="M277.022,253.493c-0.582,0-1.175-0.091-1.757-0.286c-2.916-0.969-4.494-4.119-3.524-7.037
	l66.389-199.632c0.971-2.916,4.125-4.497,7.037-3.524c2.916,0.969,4.494,4.119,3.524,7.037l-66.389,199.632
	C281.525,252.018,279.354,253.493,277.022,253.493z"/>
<path style="fill:#C24D30;" d="M348.078,82.599c-5.464-1.816-11.296-1.054-16.637,1.69c-2.633-5.396-6.847-9.5-12.311-11.317
	c-12.956-4.309-27.996,5.846-33.595,22.68s9.35,36.962,22.305,41.271c2.125,0.707,8.855,2.945,10.98,3.652
	c12.956,4.309,36.981-2.858,42.579-19.692C366.997,104.047,361.033,86.908,348.078,82.599z"/>
<path style="fill:#A8432A;" d="M348.078,82.599c-5.464-1.816-11.296-1.054-16.637,1.69l-18.111,54.459
	c2.214,0.736,4.428,1.473,5.491,1.825c12.956,4.309,36.981-2.858,42.579-19.692C366.997,104.047,361.033,86.908,348.078,82.599z"/>
<path style="fill:#E88FB9;" d="M164.647,202.189c-3.747,16.712-5.812,32.845-5.812,46.802c0,64.874,44.091,117.464,98.481,117.464
	s98.481-52.59,98.481-117.464c0-13.959-2.062-30.091-5.809-46.802H164.647z"/>
<path style="fill:#E16EA7;" d="M349.989,202.189h-92.673v164.267c54.382,0,98.481-52.581,98.481-117.464
	C355.798,235.034,353.735,218.901,349.989,202.189z"/>
<path style="fill:#CDDF63;" d="M163.081,283.197c12.279,48.188,49.821,83.258,94.235,83.258s81.954-35.07,94.235-83.258H163.081z"/>
<path style="fill:#7FAE4C;" d="M351.55,283.197h-94.235v83.258C304.02,366.455,339.921,328.83,351.55,283.197z"/>
<path style="fill:#8DC652;" d="M236.013,124.098c0,14.815-12.01,26.825-26.825,26.825c-14.815,0-26.825-12.01-26.825-26.825
	c0-14.816,26.825-58.597,26.825-58.597S236.013,109.283,236.013,124.098z"/>
<path style="fill:#5A9449;" d="M209.188,65.5v85.423c14.816,0,26.825-12.01,26.825-26.825
	C236.013,109.282,209.188,65.5,209.188,65.5z"/>
<path style="fill:#8DC652;" d="M205.28,114.298c10.808,10.133,11.355,27.109,1.222,37.917
	c-10.133,10.808-27.108,11.355-37.917,1.222c-10.808-10.133-24.401-59.648-24.401-59.648S194.472,104.165,205.28,114.298z"/>
<path style="fill:#5A9449;" d="M144.185,93.791l62.318,58.425c10.133-10.808,9.586-27.784-1.222-37.917
	C194.472,104.165,144.185,93.791,144.185,93.791z"/>
<g>
</g>
<g>
</g>
<g>
</g>
<g>
</g>
<g>
</g>
<g>
</g>
<g>
</g>
<g>
</g>
<g>
</g>
<g>
</g>
<g>
</g>
<g>
</g>
<g>
</g>
<g>
</g>
<g>
</g>
</svg>
