<?xml version='1.0' encoding='iso-8859-1'?>
<svg version="1.1" xmlns="http://www.w3.org/2000/svg" viewBox="0 0 55.118 55.118" xmlns:xlink="http://www.w3.org/1999/xlink" enable-background="new 0 0 55.118 55.118">
  <path fill="#333333" d="m35.151,38.761c0-0.009 0.004-0.018 0.004-0.027 0-0.007-0.004-0.013-0.004-0.019v-4.23c0-2.642-1.093-6.864-2.149-10.947-0.983-3.803-2.001-7.733-2.001-9.925v-9.62c0.475-0.408 0.752-0.913 0.752-1.483 0-1.454-1.76-2.51-4.184-2.51-2.424,0-4.183,1.056-4.183,2.51 0,0.561 0.267,1.06 0.728,1.465v9.637c0,2.191-1.018,6.122-2.001,9.925-1.057,4.083-2.149,8.306-2.149,10.947v17.53c0,2.143 3.813,3.104 7.594,3.104 3.78,0 7.594-0.96 7.594-3.104v-8.412c0.001-0.026 0.004-0.053 0.004-0.079 0-0.007-0.004-0.013-0.004-0.019v-4.743zm-7.583-36.761c1.106,0 1.838,0.306 2.105,0.51-0.267,0.204-0.999,0.51-2.105,0.51-1.105,0-1.838-0.307-2.104-0.51 0.266-0.203 0.998-0.51 2.104-0.51zm1.432,2.875v0.938c-0.839,0.242-2.052,0.241-2.887-0.004v-0.939c0.45,0.091 0.933,0.149 1.455,0.149 0.513,0.001 0.988-0.056 1.432-0.144zm-7.038,36.06c0.401,0.168 0.851,0.318 1.365,0.444-0.221,0.536-0.346,1.12-0.346,1.734 0,0.307 0.033,0.607 0.091,0.897-0.681-0.232-1.011-0.461-1.109-0.574v-2.501zm11.187,10.998c-0.31,0.377-2.218,1.186-5.594,1.186-3.376,0-5.284-0.809-5.594-1.186v-6.197c0.538,0.221 1.212,0.419 2.054,0.579 0.064,0.012 0.126,0.018 0.189,0.018 0.032,0 0.061-0.013 0.093-0.016 0.831,0.845 1.983,1.372 3.258,1.372 1.276,0 2.428-0.527 3.259-1.373 0.033,0.003 0.064,0.017 0.097,0.017 0.062,0 0.125-0.006 0.188-0.018 0.839-0.16 1.511-0.357 2.049-0.578v6.196zm-8.168-8.82c0-1.42 1.155-2.575 2.575-2.575 1.42,0 2.575,1.155 2.575,2.575 0,1.42-1.155,2.575-2.575,2.575-1.42,0.001-2.575-1.155-2.575-2.575zm8.169,.328c-0.102,0.114-0.433,0.341-1.109,0.571 0.058-0.291 0.091-0.591 0.091-0.899 0-0.616-0.126-1.203-0.348-1.74 0.515-0.123 0.965-0.271 1.367-0.438v2.506zm-.001-4.787c-0.179,0.207-0.958,0.648-2.548,0.924-0.044,0.008-0.079,0.034-0.121,0.047-0.796-0.668-1.807-1.087-2.925-1.087-1.122,0-2.138,0.422-2.935,1.095-0.039-0.012-0.07-0.037-0.111-0.044-1.6-0.287-2.377-0.734-2.548-0.939v-4.166c0-2.388 1.061-6.484 2.086-10.446 1.061-4.104 2.065-7.981 2.065-10.426v-5.736c0.455,0.092 0.941,0.147 1.45,0.147 0.504,0 0.985-0.054 1.437-0.145v5.734c0,2.445 1.003,6.321 2.064,10.426 1.025,3.962 2.086,8.059 2.086,10.446v4.17z"/>
</svg>
