<?xml version="1.0" encoding="iso-8859-1"?>
<svg xmlns="http://www.w3.org/2000/svg" xmlns:xlink="http://www.w3.org/1999/xlink" version="1.1" viewBox="0 0 49.586 49.586" enable-background="new 0 0 49.586 49.586" width="512px" height="512px">
  <g fill="#333333">
    <path d="m25.793,43.065v-10.852c4.281-1.573 6.682-13.218 7.051-25.58 0.001-0.024 0.011-0.046 0.011-0.07h-0.009c0.03-1.025 0.047-2.054 0.049-3.083 0.008-0.069 0.024-0.135 0.024-0.207-0-2.261-4.081-3.273-8.126-3.273-4.045,0-8.126,1.012-8.126,3.273 0,0.071 0.016,0.138 0.024,0.207 0.002,1.029 0.019,2.058 0.049,3.083h-0.002c0,0.006 0.003,0.011 0.003,0.016 0.364,12.382 2.766,24.059 7.053,25.634v10.852c-3.69,0.155-7.126,1.175-7.126,3.249 0,2.261 4.081,3.272 8.126,3.272 4.045,0 8.126-1.012 8.126-3.272-0.001-2.074-3.436-3.094-7.127-3.249zm-7.078-37.504c1.564,0.669 3.826,0.984 6.079,0.984 2.253,0 4.515-0.315 6.079-0.984-0.005,0.254-0.009,0.511-0.015,0.762-0.507,0.355-2.641,0.95-6.059,0.95-3.434,0-5.573-0.6-6.068-0.954-0.008-0.25-0.011-0.505-0.016-0.758zm6.078-3.561c3.608,0 5.648,0.836 6.076,1.273-0.428,0.436-2.469,1.272-6.076,1.272-3.608,0-5.648-0.836-6.076-1.272 0.428-0.437 2.468-1.273 6.076-1.273zm-6.056,4.562c0,0 0.001,0 0,0 0.001,0 0,0 0,0zm.076,1.97c1.973,0.664 4.807,0.74 5.984,0.74 1.176,0 4.004-0.076 5.976-0.738-0.643,13.667-3.71,21.861-5.98,21.861-2.27-0-5.337-8.194-5.98-21.863zm5.98,39.054c-3.608,0-5.648-0.836-6.076-1.272 0.386-0.394 2.097-1.107 5.076-1.244v0.366c0,0.552 0.447,1 1,1 0.553,0 1-0.448 1-1v-0.366c2.979,0.137 4.69,0.85 5.076,1.244-0.427,0.436-2.468,1.272-6.076,1.272z" fill="#FFFFFF"/>
    <path d="m26.209,23.604c0.085,0.023 0.17,0.033 0.255,0.033 0.443,0 0.849-0.297 0.966-0.746 0.913-3.472 1.58-7.825 1.93-12.589 0.041-0.551-0.373-1.03-0.924-1.071-0.569-0.032-1.03,0.374-1.07,0.924-0.342,4.643-0.987,8.872-1.869,12.227-0.141,0.535 0.178,1.082 0.712,1.222z" fill="#FFFFFF"/>
  </g>
</svg>
