<?xml version='1.0' encoding='iso-8859-1'?>
<svg version="1.1" xmlns="http://www.w3.org/2000/svg" viewBox="0 0 44.819 44.819" xmlns:xlink="http://www.w3.org/1999/xlink" enable-background="new 0 0 44.819 44.819">
  <g fill="#333333">
    <path d="m25.872,36.979c-0.558-0.069-1.047,0.325-1.112,0.874-0.066,0.548 0.325,1.046 0.873,1.112 3.827,0.46 5.203,1.521 5.246,1.831-0.082,0.605-3.062,2.022-8.468,2.022-5.406,0-8.387-1.417-8.469-2.019 0.043-0.311 1.402-1.362 5.183-1.828 0.548-0.067 0.938-0.566 0.871-1.114-0.067-0.549-0.565-0.943-1.115-0.87-2.086,0.257-6.939,1.142-6.939,3.811 0,2.763 5.427,4.021 10.469,4.021s10.468-1.258 10.468-4.021c-0.001-2.686-4.901-3.565-7.007-3.819z"/>
    <path d="m22.41,0c-8.297,0-16.695,2.062-16.695,6.006 0,0.757 0.315,1.443 0.874,2.06 0.02,0.022 0.028,0.05 0.05,0.071l13.391,12.706c2.269,8.828-0.03,19.327-0.054,19.433-0.121,0.539 0.218,1.073 0.757,1.194 0.074,0.017 0.148,0.024 0.22,0.024 0.457,0 0.87-0.315 0.975-0.781 0.026-0.117 0.204-0.928 0.41-2.22 0.206,1.291 0.383,2.1 0.41,2.216 0.104,0.466 0.517,0.781 0.975,0.781 0.073,0 0.146-0.008 0.22-0.024 0.539-0.121 0.878-0.656 0.756-1.194-0.023-0.105-2.288-10.417-0.103-19.202 0.078-0.083 0.156-0.165 0.225-0.257l13.361-12.676c0.022-0.021 0.031-0.05 0.051-0.072 0.558-0.617 0.872-1.302 0.872-2.058-0-3.945-8.399-6.007-16.695-6.007zm.437,19.928c-0.274,0.136-0.584,0.145-0.86,0.016l-9.519-9.032c2.904,0.726 6.428,1.099 9.941,1.099 3.513,0 7.037-0.374 9.941-1.099l-9.503,9.016zm13.943-13.228l-.395,.375c-1.78,1.436-6.85,2.937-13.985,2.937-7.132,0-12.201-1.5-13.983-2.935l-.404-.384c-0.198-0.237-0.308-0.469-0.308-0.687 0-1.634 5.724-4.006 14.695-4.006s14.695,2.372 14.695,4.006c-0,0.22-0.113,0.454-0.315,0.694z"/>
  </g>
</svg>
