<?xml version="1.0" encoding="iso-8859-1"?>
<!-- Generator: Adobe Illustrator 18.0.0, SVG Export Plug-In . SVG Version: 6.00 Build 0)  -->
<!DOCTYPE svg PUBLIC "-//W3C//DTD SVG 1.1//EN" "http://www.w3.org/Graphics/SVG/1.1/DTD/svg11.dtd">
<svg xmlns="http://www.w3.org/2000/svg" xmlns:xlink="http://www.w3.org/1999/xlink" version="1.1" id="Capa_1" x="0px" y="0px" viewBox="0 0 496.604 496.604" style="enable-background:new 0 0 496.604 496.604;" xml:space="preserve" width="512px" height="512px">
<g id="pint-glass_1_">
	<line x1="82.495" y1="56.435" x2="82.495" y2="56.435" fill="#FFFFFF"/>
	<g>
		<path d="M248.221,0c-16.444,0-170.9,3.757-165.204,56.435c11.628,107.517,49.806,425.28,49.806,425.28    c1.016,8.498,8.225,14.89,16.783,14.89h197.22c8.559,0,15.763-6.392,16.778-14.89c0,0,37.239-316.425,50.333-425.28    C419.961,6.36,264.661,0,248.221,0z M331.829,462.802H164.603l-4.579-38.228h176.384L331.829,462.802z M340.453,390.767H155.98    L120.526,94.885c45.45,17.02,116.279,17.813,127.695,17.813s82.235-0.793,127.677-17.813L340.453,390.767z M248.221,78.886    c-70.94,0-118.325-13.378-130.482-22.544c12.157-9.162,59.551-22.53,130.482-22.53c70.927,0,118.315,13.368,130.474,22.53    C366.536,65.508,319.148,78.886,248.221,78.886z" fill="#FFFFFF"/>
	</g>
</g>
<g>
</g>
<g>
</g>
<g>
</g>
<g>
</g>
<g>
</g>
<g>
</g>
<g>
</g>
<g>
</g>
<g>
</g>
<g>
</g>
<g>
</g>
<g>
</g>
<g>
</g>
<g>
</g>
<g>
</g>
</svg>
