<?xml version='1.0' encoding='iso-8859-1'?>
<svg version="1.1" xmlns="http://www.w3.org/2000/svg" viewBox="0 0 42.592 42.592" xmlns:xlink="http://www.w3.org/1999/xlink" enable-background="new 0 0 42.592 42.592">
  <path fill="#333333" d="m34.463,6.067c0.307-0.415 0.491-0.865 0.491-1.361 0-3.233-7.08-4.706-13.658-4.706-6.578,0-13.658,1.473-13.658,4.706 0,0.497 0.184,0.947 0.491,1.361l2.972,33.018c0.017,0.189 0.098,0.35 0.203,0.492l-.021,.017c0.039,0.048 0.096,0.09 0.138,0.137 0.002,0.002 0.004,0.004 0.006,0.006 1.578,1.762 5.316,2.855 9.869,2.855 4.43,0 7.924-1.014 9.866-2.853 0.003-0.003 0.007-0.005 0.01-0.008 0.018-0.017 0.042-0.032 0.06-0.05l-.012-.013c0.146-0.157 0.252-0.354 0.273-0.584l2.97-33.017zm-18,14.158l.562,19.97c-1.947-0.39-3.297-1.016-3.964-1.645l-1.712-19.018c0.767-0.751 1.534-1.087 2.313-1.029 1.296,0.102 2.388,1.235 2.801,1.722zm1.138-1.713c-0.75-0.772-2.084-1.863-3.767-2.002-0.939-0.075-1.841,0.152-2.697,0.665l-.858-9.537c2.656,1.205 6.932,1.774 11.017,1.774 4.085,0 8.361-0.569 11.017-1.774l-.847,9.412c-0.792-0.427-1.623-0.609-2.487-0.54-1.714,0.141-3.062,1.267-3.804,2.041-2.736-2.133-5.776-1.2-7.574-0.039zm8.75,1.714c0.414-0.486 1.506-1.616 2.793-1.723 0.72-0.053 1.415,0.235 2.115,0.851l-1.723,19.139c-0.88,0.728-2.161,1.283-3.745,1.638l.56-19.905zm-5.055-18.226c7.692,0 11.658,1.897 11.658,2.706 0,0.048-0.016,0.101-0.044,0.157-0.121,0.088-0.228,0.195-0.299,0.329-1.101,0.907-4.912,2.219-11.315,2.219-6.403,0-10.214-1.312-11.315-2.219-0.071-0.135-0.177-0.241-0.299-0.33-0.028-0.055-0.044-0.108-0.044-0.156 0-0.809 3.966-2.706 11.658-2.706zm-2.263,38.477l-.566-20.133c0.934-0.659 3.527-2.096 5.876,0.134l-.562,19.981c-0.785,0.083-1.612,0.132-2.485,0.132-0.81,0.001-1.553-0.047-2.263-0.114z"/>
</svg>
