<?xml version="1.0" encoding="iso-8859-1"?>
<!-- Generator: Adobe Illustrator 19.0.0, SVG Export Plug-In . SVG Version: 6.00 Build 0)  -->
<svg xmlns="http://www.w3.org/2000/svg" xmlns:xlink="http://www.w3.org/1999/xlink" version="1.1" id="Layer_1" x="0px" y="0px" viewBox="0 0 512 512" style="enable-background:new 0 0 512 512;" xml:space="preserve" width="512px" height="512px">
<g>
	<g>
		<path d="M394.623,3.123C392.791,1.133,390.211,0,387.507,0H124.493c-2.704,0-5.285,1.133-7.115,3.123    c-1.83,1.991-2.743,4.658-2.517,7.353l38.554,458.813c0.421,5.007,4.607,8.857,9.633,8.857h12.403v24.19    c0,5.338,4.328,9.666,9.666,9.666h141.768c5.338,0,9.666-4.328,9.666-9.666v-24.19h12.402c5.024,0,9.211-3.85,9.633-8.857    L397.14,10.475C397.365,7.78,396.453,5.114,394.623,3.123z M317.219,492.668H194.783v-14.523h122.436V492.668z M340.065,458.813    h-13.181H185.117h-13.182l-28.381-337.752c12.427,0.831,19.907,3.196,27.725,5.676c10.692,3.391,21.748,6.896,43.565,6.896    c21.818,0,32.875-3.505,43.568-6.896c9.718-3.081,18.896-5.992,37.724-5.992s28.006,2.91,37.724,5.992    c8.915,2.826,18.106,5.726,33.554,6.614L340.065,458.813z M369.034,114.077c-13.392-0.728-21.183-3.185-29.331-5.769    c-10.692-3.39-21.748-6.896-43.568-6.896c-21.819,0-32.875,3.506-43.568,6.896c-9.718,3.082-18.896,5.992-37.724,5.992    c-18.825,0-28.004-2.91-37.722-5.992c-9.229-2.927-18.746-5.934-35.204-6.703l-6.912-82.273h241.989L369.034,114.077z" fill="#FFFFFF"/>
	</g>
</g>
<g>
	<g>
		<path d="M205.038,175.144c-18.657,0-33.834,15.177-33.834,33.834c0,18.657,15.177,33.834,33.834,33.834    s33.834-15.177,33.834-33.834C238.871,190.321,223.693,175.144,205.038,175.144z M205.038,223.479    c-7.996,0-14.502-6.506-14.502-14.502c0-7.996,6.506-14.502,14.502-14.502c7.996,0,14.502,6.506,14.502,14.502    C219.539,216.973,213.033,223.479,205.038,223.479z" fill="#FFFFFF"/>
	</g>
</g>
<g>
	<g>
		<circle cx="293.009" cy="289.207" r="9.666" fill="#FFFFFF"/>
	</g>
</g>
<g>
	<g>
		<circle cx="238.879" cy="355.258" r="9.666" fill="#FFFFFF"/>
	</g>
</g>
<g>
</g>
<g>
</g>
<g>
</g>
<g>
</g>
<g>
</g>
<g>
</g>
<g>
</g>
<g>
</g>
<g>
</g>
<g>
</g>
<g>
</g>
<g>
</g>
<g>
</g>
<g>
</g>
<g>
</g>
</svg>
