<?xml version="1.0" encoding="iso-8859-1"?>
<!-- Generator: Adobe Illustrator 19.0.0, SVG Export Plug-In . SVG Version: 6.00 Build 0)  -->
<svg xmlns="http://www.w3.org/2000/svg" xmlns:xlink="http://www.w3.org/1999/xlink" version="1.1" id="Capa_1" x="0px" y="0px" viewBox="0 0 512 512" style="enable-background:new 0 0 512 512;" xml:space="preserve" width="512px" height="512px">
<g>
	<g>
		<path d="M361.363,437.528c-9.369-29.106-8.534-60.871,2.352-89.447l1.95-5.125c42.285-110.997,30.145-226.544,24.438-242.964    c0.561-3.314,0.846-6.68,0.846-10.077c0-33.091-26.921-60.012-60.012-60.012c-4.657,0-9.306,0.548-13.825,1.615    C303.196,11.963,280.415,0,255.921,0c-24.494,0-47.276,11.963-61.19,31.516c-4.52-1.067-9.168-1.615-13.825-1.615    c-33.091,0-60.012,26.922-60.012,60.012c0,3.398,0.284,6.764,0.846,10.077c-1.418,4.081-22.493,119.774,24.438,242.963    l1.952,5.129c10.885,28.574,11.72,60.339,2.351,89.445l-2.779,8.634c-7.216,13.772-6.887,29.877,0.972,43.42    C156.822,503.619,171.374,512,187.604,512h136.637c16.23,0,30.782-8.381,38.929-22.419c7.859-13.542,8.189-29.648,0.972-43.42    L361.363,437.528z M180.906,59.908c4.814,0,9.405,1.1,13.645,3.272c3.64,1.863,7.88,2.16,11.74,0.825    c3.862-1.335,7.012-4.189,8.723-7.901c7.335-15.917,23.393-26.201,40.907-26.201c17.515,0,33.573,10.285,40.907,26.201    c1.71,3.712,4.86,6.565,8.723,7.901c3.862,1.335,8.102,1.038,11.74-0.825c4.239-2.17,8.83-3.272,13.645-3.272    c16.545,0,30.006,12.566,30.006,29.11h-45.009c-8.286,0-15.003,7.613-15.003,15.899v62.013c0,8.273-6.73,15.003-15.003,15.003    c-8.273,0-15.003-6.73-15.003-15.003v-62.909c0-8.286-6.717-15.003-15.003-15.003H150.899    C150.899,72.473,164.36,59.908,180.906,59.908z M148.694,126.549c0.007-0.058,0.013-0.116,0.02-0.175l0.683-6.453h91.522v47.01    c0,24.818,20.191,45.009,45.009,45.009c24.818,0,45.009-20.191,45.009-45.009v-47.01h31.509l0.683,6.453    c0.007,0.058,0.013,0.116,0.02,0.175c8.156,69.34-0.67,140.48-25.526,205.727l-1.952,5.126    c-10.272,26.965-13.214,56.255-8.753,84.58H184.923c4.461-28.325,1.519-57.615-8.753-84.578l-1.952-5.129    C149.362,267.028,140.536,195.89,148.694,126.549z M337.215,474.52c-1.304,2.246-5.179,7.473-12.977,7.473H187.602    c-7.798,0-11.672-5.226-12.977-7.473c-4.749-8.183-0.476-12.598,2.723-22.534h157.145    C337.927,462.656,341.809,466.605,337.215,474.52z" fill="#FFFFFF"/>
	</g>
</g>
<g>
</g>
<g>
</g>
<g>
</g>
<g>
</g>
<g>
</g>
<g>
</g>
<g>
</g>
<g>
</g>
<g>
</g>
<g>
</g>
<g>
</g>
<g>
</g>
<g>
</g>
<g>
</g>
<g>
</g>
</svg>
