<?xml version="1.0" encoding="iso-8859-1"?>
<!-- Generator: Adobe Illustrator 19.0.0, SVG Export Plug-In . SVG Version: 6.00 Build 0)  -->
<svg xmlns="http://www.w3.org/2000/svg" xmlns:xlink="http://www.w3.org/1999/xlink" version="1.1" id="Layer_1" x="0px" y="0px" viewBox="0 0 512 512" style="enable-background:new 0 0 512 512;" xml:space="preserve" width="512px" height="512px">
<g>
	<g>
		<path d="M60.495,0l10.83,133.85c6.73-1.72,16.97-3.99,29.64-5.7L93.025,30h325.95l-13.67,169.01c16.92-2.51,28.55-5.85,30.62-6.47    L451.505,0H60.495z" fill="#FFFFFF"/>
	</g>
</g>
<g>
	<g>
		<polygon points="97.225,453.91 101.925,512 410.075,512 414.775,453.91   " fill="#FFFFFF"/>
	</g>
</g>
<g>
	<g>
		<path d="M418.065,227.34c-4.62,0.81-9.73,1.6-15.24,2.29c-8.14,1.02-17.16,1.8-26.75,2.11c-2.86,0.09-5.68,0.14-8.49,0.14    c-48.66,0-90.37-13.59-121.02-39.53c-46.98-39.76-107.12-39.32-143.17-34.22c-5.57,0.78-10.56,1.68-14.84,2.55    c-7.07,1.45-12.19,2.84-14.77,3.59l21.01,259.64h15.05h15.05h262.21h15.05h15.05l16.16-199.7    C429.195,225.19,424.025,226.28,418.065,227.34z" fill="#FFFFFF"/>
	</g>
</g>
<g>
</g>
<g>
</g>
<g>
</g>
<g>
</g>
<g>
</g>
<g>
</g>
<g>
</g>
<g>
</g>
<g>
</g>
<g>
</g>
<g>
</g>
<g>
</g>
<g>
</g>
<g>
</g>
<g>
</g>
</svg>
