<?xml version='1.0' encoding='iso-8859-1'?>
<svg version="1.1" xmlns="http://www.w3.org/2000/svg" viewBox="0 0 55.118 55.118" xmlns:xlink="http://www.w3.org/1999/xlink" enable-background="new 0 0 55.118 55.118">
  <path fill="#333333" d="m37.105,33.74c0-0.066-0.003-0.131-0.013-0.195-0.288-2.658-1.675-6.289-3.143-10.116-1.449-3.777-2.947-7.684-2.947-9.816v-9.625c0.471-0.407 0.746-0.911 0.746-1.478 0-1.454-1.76-2.51-4.184-2.51-2.424,0-4.183,1.056-4.183,2.51 0,0.563 0.269,1.064 0.733,1.469v9.633c0,2.133-1.498,6.039-2.946,9.817-1.647,4.297-3.204,8.354-3.204,11.055 0,2.931 1.849,16.491 2.002,17.612 0.096,2.086 3.86,3.021 7.592,3.021 3.731,0 7.497-0.936 7.593-3.021 0.153-1.121 2.002-14.682 2.002-17.612 0-0.233-0.026-0.49-0.048-0.744zm-9.541-31.74c1.106,0 1.838,0.306 2.105,0.51-0.267,0.204-0.999,0.51-2.105,0.51-1.105,0-1.838-0.307-2.104-0.51 0.267-0.203 0.999-0.51 2.104-0.51zm1.438,2.874v0.938c-0.837,0.243-2.05,0.243-2.887-0.001v-0.939c0.448,0.091 0.929,0.148 1.449,0.148 0.516,0 0.993-0.057 1.438-0.146zm-9.037,29.61c0-2.329 1.562-6.401 3.071-10.339 1.584-4.13 3.079-8.029 3.079-10.533v-5.735c0.454,0.092 0.937,0.146 1.444,0.146 0.506,0 0.989-0.055 1.442-0.146v5.735c0,2.504 1.496,6.403 3.079,10.533 1.308,3.41 2.651,6.916 2.988,9.309-0.001,0.017-0.008,0.033-0.009,0.051-0.467,0.497-2.609,1.76-8.195,3.795-3.624,1.318-5.954,1.416-6.583,1.176-0.189-1.793-0.316-3.265-0.316-3.992zm13.198,17.395c-0.003,0.017-0.005,0.032-0.006,0.049-0.298,0.375-2.208,1.19-5.599,1.19-3.39,0-5.3-0.815-5.598-1.19-0.001-0.017-0.003-0.032-0.006-0.049-0.005-0.039-0.154-1.128-0.368-2.745 1.635-0.11 3.763-0.606 5.963-1.407l.314-.114c2.329-0.848 4.558-1.665 6.185-2.489-0.452,3.594-0.876,6.688-0.885,6.755zm1.196-9.25c-1.237,0.94-4.51,2.133-7.179,3.104l-.314,.115c-2.083,0.758-4.11,1.224-5.538,1.295-0.262-2.025-0.563-4.42-0.816-6.61 0.212,0.021 0.429,0.035 0.657,0.035 2.387-0.001 5.511-1.072 6.381-1.39 3.791-1.381 6.114-2.422 7.529-3.255-0.13,1.653-0.412,4.16-0.72,6.706z"/>
</svg>
