<?xml version='1.0' encoding='iso-8859-1'?>
<svg version="1.1" xmlns="http://www.w3.org/2000/svg" viewBox="0 0 43.806 43.806" xmlns:xlink="http://www.w3.org/1999/xlink" enable-background="new 0 0 43.806 43.806">
  <g fill="#333333">
    <path d="m22.903,35.769v-9.487c6.706-0.569 12.008-6.777 12.008-14.342 0-3.242-0.951-6.292-2.743-8.839-1.072-2.122-5.815-3.101-10.265-3.101-4.46,0-9.214,0.983-10.27,3.116-1.763,2.511-2.738,5.632-2.738,8.824 0,7.565 5.302,13.773 12.008,14.342v9.487c-4.745,0.156-9.492,1.425-9.492,4.009 0,2.767 5.438,4.027 10.492,4.027 5.054,0 10.492-1.26 10.492-4.027 0-2.584-4.747-3.853-9.492-4.009zm-1-33.769c5.434,0 8.416,1.422 8.492,2.026-0.079,0.606-3.063,2.028-8.492,2.028-5.426,0-8.409-1.419-8.492-2.026 0.08-0.608 3.061-2.028 8.492-2.028zm-11.008,9.94c0-2.153 0.504-4.267 1.439-6.122 1.763,1.525 5.774,2.235 9.569,2.235 3.794,0 7.805-0.71 9.568-2.235 0.935,1.856 1.439,3.97 1.439,6.122 0,6.836-4.938,12.398-11.008,12.398-6.068,0-11.007-5.561-11.007-12.398zm11.008,29.866c-5.431,0-8.412-1.42-8.492-2.027 0.078-0.569 2.701-1.85 7.492-2.01v0.64c0,0.552 0.447,1 1,1 0.553,0 1-0.448 1-1v-0.64c4.794,0.16 7.418,1.443 7.492,2.008-0.076,0.607-3.059,2.029-8.492,2.029z"/>
    <path d="m28.628,16.925c0.134,0.06 0.273,0.088 0.409,0.088 0.382,0 0.746-0.22 0.913-0.591 0.975-2.169 0.896-4.593 0.69-6.677-0.044-0.446-0.112-0.899-0.202-1.347-0.109-0.542-0.639-0.892-1.178-0.783-0.541,0.109-0.892,0.636-0.783,1.178 0.075,0.375 0.134,0.759 0.173,1.15 0.19,1.914 0.257,3.924-0.523,5.661-0.227,0.503-0.002,1.095 0.501,1.321z"/>
  </g>
</svg>
