<?xml version="1.0" encoding="iso-8859-1"?>
<!-- Generator: Adobe Illustrator 19.0.0, SVG Export Plug-In . SVG Version: 6.00 Build 0)  -->
<svg version="1.1" id="Layer_1" xmlns="http://www.w3.org/2000/svg" xmlns:xlink="http://www.w3.org/1999/xlink" x="0px" y="0px"
	 viewBox="0 0 512 512" style="enable-background:new 0 0 512 512;" xml:space="preserve">
<polygon style="fill:#083B25;" points="295.385,0 298.142,33.758 241.765,56.264 261.514,0 "/>
<polygon style="fill:#0B4E31;" points="261.514,0 264.271,33.758 239.065,67.516 213.858,33.758 216.615,0 "/>
<path style="fill:#10744A;" d="M308.978,166.574L298.142,33.758h-33.871l-33.758,208.66L319.983,512
	c18.578,0,33.77-15.191,33.77-33.758l0.011-230.681C353.764,213.431,335.872,183.499,308.978,166.574z"/>
<path style="fill:#169B62;" d="M276.705,186.154L264.271,33.758h-50.412l-10.836,132.816c-26.894,16.924-44.78,46.856-44.78,80.986
	l-0.006,230.681c0,18.567,15.191,33.758,33.758,33.758h127.989l0.045-33.859L276.705,186.154z"/>
<path style="fill:#0B4E31;" d="M320.028,478.141l-0.034-230.58c0-21.391-10.836-40.983-28.998-52.415l-14.291-8.991H257.26
	l29.01,291.986v0.113l33.724-0.011C319.949,478.242,320.006,478.174,320.028,478.141z"/>
<path style="fill:#10744A;" d="M286.27,478.141v0.113l-94.174,0.011c-0.023-0.011-0.068-0.045-0.09-0.045V247.56
	c0-21.391,10.836-40.983,28.998-52.415l14.291-8.991h21.965c18.151,11.433,28.976,31.024,28.976,52.404L286.27,478.141z"/>
<polygon style="fill:#FFE1AA;" points="353.758,247.56 353.758,418.602 320,418.602 286.242,333.081 320,247.56 "/>
<rect x="158.236" y="247.56" style="fill:#FFF5E3;" width="161.758" height="171.042"/>
<path style="fill:#083B25;" d="M312.264,356.865c-2.283,0-4.56-0.92-6.224-2.738l-21.907-23.902l-21.919,23.904
	c-1.599,1.743-3.855,2.736-6.221,2.736c-2.366,0-4.623-0.994-6.222-2.738l-21.907-23.901l-21.906,23.901
	c-3.15,3.437-8.487,3.669-11.923,0.519c-3.437-3.148-3.668-8.488-0.519-11.923l28.127-30.689c1.598-1.744,3.855-2.738,6.222-2.738
	s4.623,0.992,6.222,2.738l21.908,23.902l21.918-23.904c1.599-1.743,3.856-2.736,6.221-2.736c2.368,0,4.623,0.994,6.222,2.738
	l28.127,30.689c3.15,3.435,2.917,8.775-0.52,11.923C316.344,356.133,314.302,356.865,312.264,356.865z"/>
<g>
</g>
<g>
</g>
<g>
</g>
<g>
</g>
<g>
</g>
<g>
</g>
<g>
</g>
<g>
</g>
<g>
</g>
<g>
</g>
<g>
</g>
<g>
</g>
<g>
</g>
<g>
</g>
<g>
</g>
</svg>
