<?xml version="1.0" encoding="iso-8859-1"?>
<!-- Generator: Adobe Illustrator 19.0.0, SVG Export Plug-In . SVG Version: 6.00 Build 0)  -->
<svg version="1.1" id="Layer_1" xmlns="http://www.w3.org/2000/svg" xmlns:xlink="http://www.w3.org/1999/xlink" x="0px" y="0px"
	 viewBox="0 0 511.999 511.999" style="enable-background:new 0 0 511.999 511.999;" xml:space="preserve">
<g>
	<rect x="134.105" y="52.934" style="fill:#F15249;" width="243.79" height="413.79"/>
	<polygon style="fill:#F15249;" points="377.893,52.743 134.107,52.743 152.006,18.073 360.003,18.073 	"/>
</g>
<polygon style="fill:#B5B5B5;" points="134.107,466.53 377.893,466.53 360.003,501.2 152.006,501.2 "/>
<polygon style="fill:#A0A0A0;" points="154.984,466.53 377.893,466.53 360.003,501.2 161.313,501.2 "/>
<g>
	<polyline style="fill:#D63834;" points="152.006,18.073 360.003,18.073 377.893,52.743 	"/>
	<polyline style="fill:#D63834;" points="134.107,52.934 377.893,52.934 377.893,466.72 	"/>
</g>
<rect x="160.934" y="146.13" style="fill:#FFFFFF;" width="190.11" height="227.4"/>
<rect x="190.785" y="146.13" style="fill:#CAEDE8;" width="160.27" height="227.4"/>
<path style="fill:#B5B5B5;" d="M366.713,9.505c0,5.25-4.263,9.505-9.505,9.505H154.801c-5.259,0-9.522-4.263-9.522-9.505l0,0
	c0-5.25,4.272-9.505,9.522-9.505h202.406C362.448,0.008,366.713,4.255,366.713,9.505L366.713,9.505z"/>
<path style="fill:#A0A0A0;" d="M154.801,0.008h202.406c5.242,0,9.505,4.255,9.505,9.505l0,0c0,5.25-4.263,9.505-9.505,9.505"/>
<path style="fill:#B5B5B5;" d="M367.549,506.135c0,3.243-2.629,5.864-5.864,5.864H150.314c-3.243,0-5.864-2.621-5.864-5.864l0,0
	c0-3.243,2.621-5.864,5.864-5.864h211.372C364.92,500.271,367.549,502.9,367.549,506.135L367.549,506.135z"/>
<path style="fill:#A0A0A0;" d="M162.076,500.271h199.611c3.235,0,5.864,2.621,5.864,5.864l0,0c0,3.243-2.629,5.864-5.864,5.864"/>
<path style="fill:#FF8C71;" d="M177.354,436.156c0,4.52-3.683,8.195-8.203,8.195l0,0c-4.529,0-8.203-3.674-8.203-8.195v-43.255
	c0-4.52,3.674-8.195,8.203-8.195l0,0c4.52,0,8.203,3.674,8.203,8.195V436.156z"/>
<g>
	<path style="fill:#343A39;" d="M183.607,278.971l-2.273,0.174h-0.904l-1.186-0.083l-1.543-0.274l-1.36-0.456l-1.186-0.357
		l-0.805-0.373l-1.012-0.63l-1.087-0.904l-0.829-0.904l-0.44-0.73l-0.547-0.987l-0.357-1.103l-0.373-1.617v-0.73l0.373-1.634
		l0.274-0.813l0.257-0.73l0.282-0.829l0.357-0.713l0.456-0.647l1.103-1.261l1.252-1.087l0.73-0.456l0.73-0.373l0.813-0.257
		l1.642-0.373l0.805-0.083h3.276l0.904,0.083l1.634,0.373l1.087,0.357l1.087,0.456l0.821,0.373l0.738,0.456l0.796,0.357l1.004,0.257
		l1.004-0.257l0.539-0.813l0.556-1.634l0.539-1.46l0.249-0.829l0.191-0.713l0.274-0.904l0.523-2.19l0.182-0.821l0.564-1.634
		l0.241-1.178l0.382-1.551l0.365-1.451l0.357-1.269l0.174-0.539l0.257-0.904l0.191-0.813l0.274-0.912l0.083-0.547l0.382-1.078
		l0.265-1.186l0.265-0.639l0.274-0.995l0.365-0.904l0.357-1.087l0.282-1.095l0.348-0.821l0.382-0.722l0.357-0.63l0.456-0.73
		l0.722-1.46l0.44-0.622l0.382-0.73l0.464-0.639l0.539-0.813l0.622-0.738l0.63-0.622l0.829-0.722l0.738-0.556l0.705-0.357
		l0.755-0.282l0.788-0.174h0.829l0.912,0.174l0.805,0.373l0.738,0.456l0.539,0.639l0.174,0.813l-0.357,0.722l-0.722,0.547
		l-0.73,0.456l-0.647,0.539l-0.539,0.539l-0.456,0.73l-0.464,0.63l-0.315,0.73l-0.265,0.821l-0.373,0.539l-0.274,0.821l-0.44,0.821
		l-1.087,2.181l-0.274,0.821l-0.182,0.713l-0.265,0.829l-0.373,0.722l-0.265,0.829l-0.265,0.722l-0.174,0.821l-0.091,0.821
		l-0.274,0.813l-0.174,0.829l-0.282,0.722l-0.257,0.821l-0.274,1.178l-0.282,1.095l-0.174,0.821l-0.257,0.821l-0.191,0.813
		l-0.265,0.821l-0.091,0.73l-0.282,0.821l-0.265,0.904l-0.282,1.004l-0.241,1.169l-0.29,0.829l-0.274,0.73l-0.257,0.813
		l-0.182,0.829l-0.274,0.713l-0.265,0.829l-0.174,0.813l-0.274,0.73l-0.332,0.738l-0.257,0.746l-0.382,0.713l-0.357,0.63
		l-0.182,0.73l0.182,0.73l0.473,0.456l1.252,0.987l0.73,0.456l0.995,0.456l1.609,0.829l0.929,0.357l1.261,0.456l1.36,0.456
		l1.095,0.274l0.887,0.274l0.829,0.1h3.981l0.838-0.1l0.813-0.174l0.821-0.1l0.722-0.274l0.821-0.373l1.36-0.887l0.73-0.456
		l0.647-0.456l0.614-0.547l0.547-0.531l0.539-0.63l0.639-0.647l1.103-1.261l0.44-0.63l0.365-0.73l0.448-0.829l0.274-0.531
		l0.464-0.813l0.357-0.746l0.373-0.813l0.448-1.087l0.373-1.087l0.357-0.904l0.257-1.103l0.274-1.169l0.191-1.004l0.083-0.531
		l0.182-0.912l0.274-1.734l0.083-0.995l0.373-1.991l0.091-1.004v-1.717l0.091-0.821v-0.821l-0.091-0.821v-0.821l-0.091-0.896
		l-0.091-0.547l-0.091-0.995l-0.191-1.634l-0.174-1.178l-0.174-1.095l-0.182-0.821l-0.282-0.838l-0.373-0.722l-0.241-0.73
		l-0.382-0.813l-0.448-1.095l-0.448-0.995l-0.373-0.821l-0.448-0.63l-0.564-0.73l-1.443-1.816l-1.087-1.277l-1.261-1.078
		l-0.647-0.448l-0.722-0.456l-0.73-0.357l-1.534-0.738l-1.012-0.456l-1.087-0.448l-0.912-0.265l-1.087-0.182l-0.987-0.182
		l-2.737-0.456h-0.705l-1.634,0.091h-0.829l-2.439,0.274l-1.634,0.365l-0.746,0.174l-0.813,0.182l-0.813,0.265l-0.73,0.373
		l-0.705,0.448l-0.738,0.365l-0.639,0.456l-1.443,0.904l-1.286,1.087l-1.709,1.717l-0.464,0.738l-0.456,0.622l-0.904,1.46
		l-0.357,0.63l-0.365,0.829l-0.274,0.813l-0.274,1.095l-0.265,1.178l-0.091,0.821v1.725l0.091,0.821l0.182,0.722l0.174,0.813
		l0.265,0.829l0.365,0.722l0.282,0.829l0.722,1.451l0.282,0.722v0.821l-0.464,0.722l-0.63,0.639l-0.722,0.539l-0.829,0.274
		l-0.904,0.091l-0.813-0.174l-0.738-0.456l-1.626-1.908l-0.464-0.63l-0.896-1.452l-0.722-1.46l-0.265-0.813l-0.191-0.821
		l-0.174-0.73l-0.182-0.813l-0.108-0.904v-2.455l0.191-1.634l0.166-0.821l0.564-1.626l0.257-0.73l0.382-0.813l0.713-1.451
		l0.464-0.738l0.357-0.722l0.464-0.622l0.539-0.829l0.365-0.365l0.523-0.73l0.647-0.622l1.261-1.095l0.547-0.539l0.622-0.456
		l0.838-0.539l1.982-1.277l0.995-0.539l0.829-0.531l0.713-0.373l0.813-0.265l1.203-0.456l1.344-0.373l1.194-0.265l0.896-0.265
		l2.198-0.539l1.899-0.182l1.178-0.1l1.012-0.091l1.087,0.091h2.09l0.995,0.1l0.539,0.091l2.978,0.456l1.194,0.274l0.622,0.174
		l1.734,0.365l1.626,0.539l0.838,0.456l0.523,0.274l0.829,0.456l0.821,0.357l0.63,0.365l0.722,0.539l0.63,0.373l0.738,0.456
		l1.252,1.095l0.647,0.622l0.531,0.456l0.639,0.539l1.103,1.277l0.44,0.63l1.642,1.908l0.456,0.722l0.357,0.73l0.456,0.63
		l0.738,1.634l0.357,1.078l0.539,1.095l0.357,0.821l0.174,0.813l0.191,0.738l0.265,0.813l0.547,2.455l0.083,0.813l0.182,0.821
		l0.282,2.455v0.813l-0.108,0.821v3.276l-0.1,0.896l-0.083,1.194l-0.182,1.087l-0.083,0.904l-0.091,0.813l-0.182,0.821l-0.182,1.103
		l-0.174,1.186l-0.182,0.904l-0.191,1.087l-0.357,1.169l-0.257,0.829l-0.282,0.73l-0.365,0.813l-0.995,2.994l-0.365,0.813
		l-0.722,1.46l-0.456,0.63l-0.722,1.46l-0.473,0.63l-0.523,0.73l-1.36,1.899l-0.655,0.647l-1.078,1.186l-0.531,0.531l-0.622,0.381
		l-1.277,1.103l-1.991,1.244l-1.369,0.73L219,277.6l-0.821,0.373l-0.821,0.257l-1.203,0.274l-1.078,0.174l-2.447,0.274h-3.185
		l-1.792-0.174l-0.838-0.1l-1.551-0.456l-0.821-0.174l-0.813-0.274l-0.813-0.174l-0.846-0.274l-0.705-0.257l-0.838-0.373
		l-1.443-0.73l-0.813-0.357l-0.722-0.373l-0.738-0.456l-0.63-0.456l-0.622-0.531l-0.722-0.531l-0.647-0.191l-0.829,0.373
		l-0.713,0.73l-0.539,0.614l-0.647,0.564l-0.622,0.456l-0.912,0.713l-1.004,0.547l-0.887,0.456l-1.095,0.456l-1.269,0.456
		l-1.178,0.257L183.607,278.971z M184.428,266.09l-1.369-0.257l-1.178-0.191l-0.904,0.1l-0.821,0.1l-0.821,0.257l-0.722,0.357
		l-0.738,0.547l-0.531,0.547l-0.464,0.813l-0.265,0.813l-0.091,0.829l0.174,0.813l0.373,0.73l0.448,0.713l0.639,0.647l0.713,0.456
		l0.73,0.373l1.833,0.174h1.078l1.095-0.174l0.904-0.373l0.896-0.647l0.821-0.713l0.639-0.63l0.813-0.904l0.647-1.186l-0.1-1.087
		l-0.995-0.904l-1.369-0.63L184.428,266.09z"/>
	<path style="fill:#343A39;" d="M271.211,240.402l0.887-0.091l0.904,0.091l0.813,0.1l0.904,0.174l0.738,0.274l0.722,0.456
		l0.365,0.722l-0.265,1.087l-0.622,1.899l-0.738,1.46l-0.265,0.821l-0.182,0.722l-0.265,0.829l-0.382,0.722l-0.357,1.634
		l-0.257,0.813l-0.29,0.73l-0.257,0.904l-0.274,0.829l-0.174,0.63l-0.282,0.813l-0.191,0.73l-0.166,0.813l-0.265,0.829l-0.547,2.447
		l-0.265,1.103l-0.282,1.169l-0.265,0.904l-0.174,1.087l-0.182,1.186l-0.091,0.904v0.829l-0.083,0.813v0.813l0.174,1.634
		l0.274,0.829l0.456,0.614l0.639,0.373l0.796,0.1l0.738-0.1l0.821-0.373l1.277-0.887l0.63-0.63l0.639-0.547l0.622-0.456l1.095-1.261
		l0.896-1.277l0.547-0.73l0.539-0.63l0.365-0.63l0.373-0.813l0.44-0.73l0.464-0.813l0.365-0.456l0.539-0.904l0.473-0.921l0.44-0.987
		l0.821-1.634l0.539-0.73l0.73-0.456l1.087,0.274l0.722,0.904l0.1,0.904l-0.265,0.813l-0.357,0.73l-0.464,0.63l-0.456,0.73
		l-0.738,1.46l-0.257,0.813l-0.365,0.73l-0.904,1.46l-0.473,0.63l-0.896,1.46l-0.448,0.63l-1.087,1.261l-0.473,0.63l-0.523,0.73
		l-1.095,1.277l-1.186,1.07l-0.547,0.547l-1.261,1.087l-1.46,0.904l-2.173,1.103l-1.634,0.357l-0.821,0.1l-1.095-0.1l-1.078-0.274
		l-0.929-0.357l-0.796-0.73l-0.722-0.829l-0.556-0.796l-0.464-1.128l-0.39-1.443l-0.174-1.46l-0.091-1.186l0.091-0.904l0.174-0.904
		l-0.083-0.357l-0.257,0.456l-0.464,0.713l-0.912,1.277l-0.547,0.73l-1.617,1.899l-1.717,1.717l-0.547,0.647l-0.63,0.456
		l-0.722,0.456l-1.46,0.813l-1.468,0.722l-0.805,0.274l-3.268,0.73l-0.821,0.083l-0.821-0.083l-0.896-0.1l-0.829-0.1l-0.639-0.174
		l-0.813-0.274l-0.738-0.357l-1.269-0.904l-0.622-0.63l-0.887-1.269l-0.373-0.829l-0.265-0.73l-0.1-0.829l-0.1-0.887v-2.447
		l0.1-0.829l0.191-0.813l0.083-0.829l0.182-0.813l0.091-0.813l0.182-1.103l0.257-1.186l0.365-1.617l0.274-0.829l0.274-1.087
		l0.63-1.908l0.265-0.713l0.199-0.829l0.249-0.813l0.108-0.73l1.261-3.815l0.265-0.904l1.012-2.994l0.265-0.73l0.257-0.813
		l0.464-1.095l0.274-1.095l0.265-0.813l0.357-0.73l0.647-0.456l0.821-0.357l0.813-0.174l0.904-0.182l0.821,0.091l0.821,0.174
		l0.821,0.274l0.713,0.365l0.373,0.539v0.73l-0.174,0.821l-0.282,0.813l-0.174,0.73l-0.539,1.634l-0.365,0.904l-0.091,0.547
		l-0.357,1.078l-0.29,0.456l-0.249,1.004l-0.274,0.821l-0.274,1.186l-0.357,1.178l-0.182,0.539l-0.365,1.004l-0.282,0.813
		l-0.174,0.829l-0.265,0.713l-0.365,1.634l-0.108,0.829l-0.174,0.813l-0.274,0.829l-0.357,1.634l-0.182,0.713l-0.282,0.829
		l-0.174,0.813l-0.274,1.186l-0.174,1.46v1.617l0.174,1.46l0.73,1.261l1.194,0.73l1.087,0.174l1.609-0.357l0.738-0.357l0.647-0.274
		l0.722-0.373l0.813-0.456l0.722-0.456l1.269-1.087l0.547-0.547l1.617-1.899l0.473-0.63l0.523-0.829l0.556-0.887l0.639-1.02
		l0.73-1.443l0.448-0.829l0.365-0.713l0.357-0.829l0.282-0.713l0.274-0.829l0.241-0.73l0.274-0.813l0.299-0.73l0.348-0.813
		l0.265-0.73l0.373-1.642l0.265-0.813l0.265-0.73l0.282-0.821l0.265-0.722l0.357-0.821l0.191-0.821l0.182-0.73l0.531-1.626
		l0.274-0.73l0.539-1.634l0.174-0.722l0.265-0.821l0.365-0.722l0.465-0.738l0.639-0.448L271.211,240.402z"/>
	<path style="fill:#343A39;" d="M341.729,256.559v1.087l-0.265,0.813l-0.274,0.73l-0.357,0.829l-0.373,0.73l-0.456,0.63l-0.912,1.46
		l-0.357,0.713l-0.523,0.63l-0.481,0.73l-0.531,0.63l-0.539,0.547l-0.722,0.63l-0.373,0.373l-0.821,0.63l-0.63,0.456l-0.722,0.357
		l-0.838,0.456l-0.813,0.373l-0.63,0.257l-0.713,0.274l-0.987,0.274l-0.746,0.1l-0.722,0.174l-0.813,0.083h-4.18l-0.904-0.083
		l-0.821,0.083l-0.282,0.547l0.373,0.73l0.614,0.73l0.564,0.987l0.63,0.904l0.456,0.73l0.357,0.73l0.382,0.813l0.265,0.73
		l0.348,1.634l0.182,0.73l0.108,0.813l0.083,0.904l0.091,1.087l0.091,1.186v1.717l-0.091,0.829l-0.091,1.169l-0.083,1.103
		l-0.199,0.904l-0.091,0.813l-0.091,0.73l-0.174,0.829l-0.274,0.813l-0.182,0.73l-0.265,0.813l-0.357,0.73l-0.265,0.813
		l-0.539,1.004l-0.464,1.004l-0.456,0.813l-0.365,0.73l-0.547,0.63l-0.448,0.73l-0.531,0.63l-0.639,0.547l-0.547,0.63l-0.821,0.531
		l-0.705,0.373l-0.647,0.373l-0.73,0.257l-1.634,0.547l-1.634,0.174l-0.829-0.1l-1.617-0.357l-0.73-0.274l-1.451-0.904l-0.564-0.639
		l-0.531-0.73l-0.73-1.443l-0.265-0.829l-0.29-0.73l-0.174-0.813l-0.182-1.634l0.1-0.829V291.3l0.091-0.904l0.1-0.829v-0.805
		l0.274-2.447l0.091-0.904l0.091-0.73l0.174-0.813l0.091-0.829l0.091-0.904l0.274-2.447l0.365-1.634l0.091-0.904l0.547-2.978
		l0.174-1.186l0.174-0.547l0.282-1.186l0.174-0.987l0.1-1.004l0.265-1.087l0.174-0.813l0.174-0.921l0.191-0.531l0.174-0.904
		l0.265-0.829l0.174-0.813l0.108-0.63l-0.282-0.191l-0.531,0.29l-1.46,0.904l-0.639,0.357l-0.995,0.456l-1.991,0.987l-0.73,0.456
		l-0.813,0.373l-0.738,0.274l-0.904,0.357l-0.547,0.174l-0.995,0.373l-0.531,0.174l-0.904,0.357l-0.738,0.373l-0.813,0.274
		l-1.634,0.357l-0.73,0.274l-0.896,0.083l-0.531,0.174l-0.116,0.274l0.365,0.373l0.738,0.63l0.547,0.531l0.531,0.73l0.547,0.647
		l0.456,0.713l0.365,0.73l0.448,0.73l0.722,1.443l0.547,1.634l0.182,0.73l0.174,0.813l0.174,0.921l0.199,1.617v4.18l-0.199,0.904
		l-0.075,0.813l-0.357,1.634l-0.108,0.829l-0.357,1.617l-0.257,0.829l-0.382,1.634l-0.365,0.813l-0.357,0.73l-0.274,0.813
		l-0.456,0.73l-0.365,0.63l-0.448,0.63l-0.556,0.73l-0.896,1.261l-0.556,0.647l-0.622,0.531l-0.639,0.456l-0.821,0.456l-0.448,0.382
		l-0.813,0.456l-0.904,0.274l-0.73,0.274l-0.713,0.083l-0.738,0.174h-1.642l-0.813-0.174l-1.352-0.531l-0.813-0.373l-0.647-0.456
		l-0.63-0.713l-1.261-1.833l-0.357-0.813l-0.29-0.829l-0.166-0.713l-0.124-0.829v-2.09l0.124-1.087v-2.53l0.083-1.087l0.083-1.169
		l0.1-0.904l0.191-1.186l0.274-1.46l0.083-1.186l0.083-0.904l0.182-1.087l0.083-1.186l0.108-0.904l0.174-1.186l0.274-1.443
		l0.274-1.186l0.091-0.829l0.357-1.634l0.274-1.169l0.182-1.087l0.174-0.829l0.1-0.813l0.257-0.829l0.282-1.087l0.174-1.087
		l0.274-0.904l0.182-1.087l0.257-1.186l0.274-0.904l0.531-2.173l0.182-0.904l0.182-0.829l0.265-0.813l0.265-1.186l0.382-1.087
		l0.274-0.921l0.174-0.713l0.174-0.821l0.265-0.829l0.257-0.722l0.572-2.447l0.357-0.912l0.265-0.995l0.357-1.178l0.282-0.829
		l0.174-0.813l0.265-0.821l0.174-0.821l0.282-0.722l0.531-1.634l0.274-0.722l0.382-0.821l0.257-0.73l0.257-0.821l0.547-1.551
		l0.265-0.722l0.274-0.813l0.738-1.46l0.249-0.821l0.29-0.73l0.357-0.821l0.265-0.713l0.357-0.738l0.382-0.813l0.722-1.452
		l0.456-0.722l1.452-2.92l0.448-0.722l0.456-0.639l0.456-0.713l0.382-0.738l1.617-1.899l0.647-0.539l1.982-1.36l0.73-0.456
		l0.73-0.365l0.821-0.365l0.73-0.265l0.813-0.182l0.813-0.091h0.838l0.821,0.091l0.805,0.182l0.821,0.265l1.46,0.73l0.63,0.547
		l0.539,0.539l0.904,1.451l0.282,0.722l0.357,1.634v0.813l0.091,0.829l-0.091,0.904l-0.174,1.626l-0.365,1.634l-0.224,1.17
		l-0.357,1.095l-0.373,1.634l-0.357,0.813l-0.29,0.73l-0.705,1.451l-0.265,0.821l-0.738,1.451l-0.274,0.73l-0.365,0.821l-0.365,0.73
		l-1.095,1.717l-0.523,0.904l-0.464,0.829l-0.547,0.63l-0.448,0.63l-0.547,0.639l-0.448,0.63l-0.464,0.722l-3.351,3.367
		l-0.722,0.622l-0.539,0.456l-0.556,0.547l-0.896,0.73l-0.365,0.265l-1.377,1.186l-0.713,0.456l-0.63,0.357l-0.73,0.456l-0.73,0.382
		l-1.36,0.904l-1.443,0.904l-0.564,0.904l-0.44,1.344l-0.365,1.46l-0.348,1.543l-0.357,1.377l-0.382,1.169l-0.182,0.829
		l-0.091,1.004l0.274,0.614l0.639,0.1l0.813-0.174l1.899-0.456l1.095-0.373l0.912-0.257l1.443-0.456l1.816-0.547l1.103-0.357
		l2.621-1.087l4.355-2.19l1.443-0.904l0.655-0.357l0.73-0.473l0.713-0.357l0.73-0.456l0.639-0.456l0.448-0.531l0.274-0.73
		l0.365-1.634l0.257-0.738l0.282-0.813l0.182-0.722l0.257-0.912l0.1-0.539l0.265-0.904l0.274-0.722l0.274-0.829l0.373-1.626
		l0.357-1.087l0.456-1.095l0.274-0.821l0.265-0.73l0.174-0.813l0.274-0.73l0.182-0.821l0.448-1.087l0.904-2.721l0.365-0.639
		l0.274-0.722l0.265-0.821l0.373-0.73l0.265-0.821l0.904-2.181l0.382-0.813l0.523-1.004l0.464-1.078l0.241-0.821l0.382-0.821
		l0.365-0.639l0.456-0.722l1.078-2.181l0.639-1.004l0.639-0.896l1.186-1.186l0.539-0.63l0.531-0.539l0.639-0.539l0.547-0.456
		l0.713-0.456l1.103-0.547l0.987-0.464l0.813-0.357l0.746-0.174l0.904-0.091h1.078l1.087,0.174l1.004,0.274l0.556,0.174l0.805,0.464
		l0.904,0.722l0.738,0.821l0.531,0.73l0.365,0.639l0.63,1.899l0.182,1.087l0.174,1.626l-0.141,1.651l-0.365,1.626l-0.091,0.73
		l-0.174,0.821l-0.274,0.821l-0.448,1.095l-0.736,1.905l-1.087,2.173l-0.464,0.73l-0.523,0.995l-0.639,1.004l-0.464,0.713
		l-0.365,0.73l-0.904,1.451l-0.896,1.261l-0.547,0.639l-0.456,0.639l-0.531,0.63l-0.647,0.722l-0.357,0.456l-0.547,0.738
		l-0.639,0.539l-0.523,0.63l-0.639,0.456l-1.733,1.725l-0.523,0.63l-1.269,1.087l-1.103,1.095l-0.639,0.539l-0.622,0.456
		l-0.73,0.539l-0.539,0.556l-0.655,0.456l-2.604,1.816l-0.647,0.531l-0.448,0.63l-0.274,0.829l-0.265,1.186l-0.365,1.344
		l-0.274,1.186l-0.274,0.829l-0.257,0.73l-0.382,1.634l0.116,0.63l0.357,0.531l0.647,0.274l0.796,0.1h0.921l2.455,0.274l0.887,0.083
		h2.455l0.813-0.083l0.713-0.1l0.846-0.174l0.987-0.274l0.713-0.274l1.559-0.63l1.443-0.73l0.713-0.456l0.838-0.63l0.456-0.373
		l0.73-0.614l0.523-0.647l0.464-0.73l1.095-1.261l0.456-0.73l0.456-0.63l0.539-0.829l1.087-1.991l0.912-0.713l1.004,0.257
		L341.729,256.559z M291.648,290.856l0.456-2.721l0.274-1.103l0.166-0.813l0.116-0.813v-0.73l0.083-0.813v-0.904l-0.083-1.103
		l-0.116-1.169l-0.523-2.463l-0.365-1.087l-0.547-1.46l-0.639-1.36l-0.622-0.987l-0.547-0.73l-0.821-0.456l-0.622,0.174
		l-0.357,0.921l-0.547,2.43l-0.191,0.73l-0.249,0.829l-0.207,0.813l-0.083,0.829l-0.191,0.813l-0.075,0.73l-0.182,0.813v0.813
		l-0.357,1.634l-0.174,1.634l-0.191,0.829l-0.257,2.447l-0.182,1.186v2.803l-0.174,1.634v0.829l0.075,0.904l0.108,0.813l0.274,0.813
		l0.456,0.73l0.547,0.547l0.813,0.083l0.829-0.174l0.713-0.456l0.547-0.531l0.531-0.647l0.464-0.713l0.357-0.829l0.456-0.713
		l0.539-1.634l0.174-0.73L291.648,290.856z M301.719,226.982l-0.357,0.821l-0.464,1.087l-0.464,0.995l-0.348,0.813l-0.357,0.73
		l-0.191,0.821l-0.265,0.73l-0.274,0.904l-0.174,0.539l-0.373,0.904l-0.448,1.087l-0.639,1.908l-0.265,0.73l-0.382,0.813
		l-0.44,1.095l-0.357,1.078l-0.373,0.829l-0.539,1.634l-0.274,1.078l-0.639,1.908l-0.174,0.821l-0.357,0.813l-0.1,0.829l0.456,0.265
		l1.004-0.639l0.904-0.722l0.63-0.539l0.547-0.639l0.531-0.539l0.547-0.63l0.539-0.539l1.103-1.277l0.705-0.813l0.738-0.904
		l0.622-0.73l0.556-0.995l0.63-0.904l0.539-0.829l0.464-0.987l0.531-1.004l0.464-0.813l0.448-0.904l0.464-1.004l0.357-0.896
		l0.365-0.73l0.365-0.904l0.174-0.547l0.265-0.904l0.265-1.178l0.282-1.087l0.174-0.829l0.282-0.713l0.365-1.626l0.083-0.829v-0.821
		l-0.083-0.73l-0.265-0.713l-0.639-0.547l-0.73-0.274l-0.722,0.091l-0.738,0.365l-0.713,0.456l-0.821,0.821l-0.713,0.863
		l-0.547,0.73l-0.713,1.443L301.719,226.982z M318.68,291.039l0.29-1.169l0.257-1.103l0.539-2.447l0.191-1.634v-0.813l0.091-0.829
		V281.5l-0.091-0.813l-0.382-1.634l-0.083-0.73l-0.531-1.634l-0.464-1.004l-0.547-0.987l-0.904-1.443l-0.63-0.647l-0.813-0.456
		l-0.73,0.274l-0.357,0.904l-0.182,0.921l-0.1,0.829l-0.265,0.73l-0.523,2.43l-0.116,0.829l-0.191,0.813l-0.075,0.73l-0.191,0.813
		v0.829l-0.539,2.447l-0.257,2.447l-0.182,0.73l-0.108,0.813v0.829l-0.066,0.904l-0.108,0.813v1.634l-0.174,1.634v0.813l0.091,0.904
		l0.091,0.829l0.274,0.73l0.365,0.73l0.622,0.44l0.838,0.1l0.821-0.274l0.73-0.357l0.523-0.547l0.547-0.63l0.448-0.713l0.738-1.46
		l0.357-0.829l0.174-0.813l0.265-0.73L318.68,291.039z M328.667,227.521l-0.813,1.717l-0.481,0.995l-0.348,0.738l-0.282,0.813
		l-0.257,0.73l-0.547,1.626l-0.265,0.73l-0.357,0.821l-0.464,1.087l-0.365,1.095l-0.357,0.813l-0.539,1.634l-0.365,0.722
		l-0.265,0.73l-0.365,0.821l-0.274,0.73l-0.182,0.813l-0.265,0.829l-0.282,0.722l-0.257,0.821l-0.182,0.821l-0.274,0.722
		l-0.158,0.821l-0.382,0.821l-0.091,0.904l0.265,0.174l0.73-0.456l0.63-0.539l1.725-1.725l0.539-0.63l0.639-0.73l0.357-0.357
		l0.639-0.738l0.523-0.722l2.098-2.356l0.448-0.73l0.572-0.813l0.622-0.912l0.531-0.904l0.357-0.813l0.912-1.46l0.547-0.995
		l1.261-2.546l0.357-0.904l0.191-0.539l0.257-0.896l0.274-1.194l0.274-1.087l0.265-0.821l0.182-0.813l0.265-0.829l0.282-2.439
		l-0.091-0.829l-0.373-0.813l-0.539-0.456l-0.813-0.274l-0.722,0.091l-0.738,0.365l-1.236,1.078l-0.547,0.639l-0.44,0.722
		l-0.456,0.639l-0.464,0.73l-0.365,0.821L328.667,227.521z"/>
</g>
<g>
	<circle style="fill:#A01818;" cx="211.945" cy="92.36" r="7.78"/>
	<circle style="fill:#A01818;" cx="256.005" cy="92.36" r="7.78"/>
	<circle style="fill:#A01818;" cx="300.065" cy="92.36" r="7.78"/>
</g>
<g>
</g>
<g>
</g>
<g>
</g>
<g>
</g>
<g>
</g>
<g>
</g>
<g>
</g>
<g>
</g>
<g>
</g>
<g>
</g>
<g>
</g>
<g>
</g>
<g>
</g>
<g>
</g>
<g>
</g>
</svg>
