<?xml version="1.0" encoding="iso-8859-1"?>
<!-- Generator: Adobe Illustrator 19.0.0, SVG Export Plug-In . SVG Version: 6.00 Build 0)  -->
<svg version="1.1" id="Layer_1" xmlns="http://www.w3.org/2000/svg" xmlns:xlink="http://www.w3.org/1999/xlink" x="0px" y="0px"
	 viewBox="0 0 512.001 512.001" style="enable-background:new 0 0 512.001 512.001;" xml:space="preserve">
<path style="fill:#EF8D43;" d="M293.298,94.24v-62.34h-74.594v62.34c0,25.842-10.457,50.584-28.992,68.593l0,0
	c-18.534,18.008-28.992,42.751-28.992,68.593v261.946c0,10.289,8.34,18.63,18.63,18.63h153.304c10.289,0,18.63-8.34,18.63-18.63
	V231.424c0-25.842-10.457-50.584-28.992-68.593l0,0C303.756,144.824,293.298,120.082,293.298,94.24z"/>
<g>
	<rect x="218.699" y="31.901" style="fill:#D87736;" width="74.594" height="27.717"/>
	<path style="fill:#D87736;" d="M193.333,493.37V231.424c0-25.842,6.878-50.584,19.068-68.593l0,0
		c12.19-18.008,19.068-42.751,19.068-68.593v-62.34h-12.766v62.34c0,25.842-10.457,50.584-28.992,68.593l0,0
		c-18.534,18.008-28.992,42.751-28.992,68.593V493.37c0,10.289,8.34,18.63,18.63,18.63h26.237
		C198.819,512,193.333,503.66,193.333,493.37z"/>
	<path style="fill:#D87736;" d="M322.291,162.831L322.291,162.831c-18.534-18.009-28.992-42.751-28.992-68.593v-62.34h-12.766v62.34
		c0,25.842,6.878,50.584,19.068,68.593l0,0c12.19,18.008,19.069,42.751,19.069,68.593V493.37c0,10.289-5.486,18.63-12.253,18.63
		h26.237c10.289,0,18.63-8.34,18.63-18.63V231.424C351.282,205.582,340.824,180.84,322.291,162.831z"/>
</g>
<rect x="160.72" y="245.842" style="fill:#495E77;" width="189.604" height="198.406"/>
<g>
	<rect x="160.72" y="245.842" style="fill:#394C60;" width="31.667" height="198.406"/>
	<rect x="318.668" y="245.842" style="fill:#394C60;" width="31.667" height="198.406"/>
</g>
<g>
	<ellipse style="fill:#79C4F7;" cx="256.001" cy="333.221" rx="36.284" ry="55.455"/>
	<rect x="206.425" y="409.717" style="fill:#79C4F7;" width="98.192" height="12.858"/>
	<path style="fill:#79C4F7;" d="M285.32,0h-58.638c-11.424,0-20.685,9.26-20.685,20.685v12.383h100.008V20.685
		C306.005,9.26,296.743,0,285.32,0z"/>
</g>
<path style="fill:#68B3DD;" d="M247.722,0h-21.041c-11.424,0-20.685,9.26-20.685,20.685v12.384h21.041V20.685
	C227.038,9.26,236.298,0,247.722,0z"/>
<g>
</g>
<g>
</g>
<g>
</g>
<g>
</g>
<g>
</g>
<g>
</g>
<g>
</g>
<g>
</g>
<g>
</g>
<g>
</g>
<g>
</g>
<g>
</g>
<g>
</g>
<g>
</g>
<g>
</g>
</svg>
