<?xml version="1.0" encoding="iso-8859-1"?>
<!-- Generator: Adobe Illustrator 19.0.0, SVG Export Plug-In . SVG Version: 6.00 Build 0)  -->
<svg version="1.1" id="Layer_1" xmlns="http://www.w3.org/2000/svg" xmlns:xlink="http://www.w3.org/1999/xlink" x="0px" y="0px"
	 viewBox="0 0 509.867 509.867" style="enable-background:new 0 0 509.867 509.867;" xml:space="preserve">
<path style="fill:#4CDBC4;" d="M314.667,206.933c-8.533-10.667-14.933-22.4-16-35.2l-12.8-137.6l0,0v-1.067
	c0-1.067,1.067-2.133,1.067-3.2s-1.067-3.2-2.133-3.2c0-3.2,0-5.333,1.067-8.533h-60.8c1.067,3.2,1.067,5.333,1.067,8.533
	c-2.133,1.067-3.2,2.133-3.2,3.2c0,1.067,0,2.133,1.067,3.2v1.067l0,0l-12.8,137.6c-1.067,12.8-7.467,25.6-16,35.2
	c-5.333,6.4-8.533,14.933-8.533,24.533v257.067c0,11.733,9.6,21.333,21.333,21.333h94.933c11.733,0,21.333-9.6,21.333-21.333
	V231.467C324.267,221.867,320,213.333,314.667,206.933z"/>
<path style="fill:#3DC9AE;" d="M288,172.8l-9.6-99.2h-46.933l-9.6,99.2c-1.067,14.933-7.467,28.8-19.2,41.6
	c-4.267,5.333-6.4,10.667-6.4,17.067v257.067c0,6.4,5.333,10.667,10.667,10.667h94.933c6.4,0,10.667-5.333,10.667-10.667V231.467
	c0-6.4-2.133-12.8-6.4-17.067C295.467,201.6,289.067,186.667,288,172.8z"/>
<g>
	<path style="fill:#40596B;" d="M282.667,0h-54.4c-6.4,0-10.667,5.333-10.667,10.667v7.467h75.733v-7.467
		C293.333,4.267,288,0,282.667,0z"/>
	<path style="fill:#40596B;" d="M185.6,420.267c43.733,20.267,93.867,20.267,137.6,0V306.133c-43.733-20.267-93.867-20.267-137.6,0
		V420.267z"/>
</g>
<g>
	<path style="fill:#FFD15C;" d="M185.6,328.533c43.733-21.333,94.933-21.333,137.6,0V316.8c-43.733-20.267-93.867-20.267-137.6,0
		V328.533z"/>
	<path style="fill:#FFD15C;" d="M185.6,408.533c22.4,9.6,45.867,14.933,69.333,14.933s46.933-5.333,69.333-14.933V396.8
		c-43.733,21.333-94.933,21.333-137.6,0v11.733H185.6z"/>
</g>
<path style="fill:#F2F2F2;" d="M288,358.4c2.133-1.067,1.067-5.333-2.133-5.333H265.6c-1.067,0-2.133-1.067-2.133-2.133l-6.4-19.2
	c-1.067-2.133-4.267-2.133-5.333,0l-5.333,19.2c0,1.067-1.067,2.133-2.133,2.133h-21.333c-2.133,0-4.267,3.2-2.133,5.333
	l17.067,11.733c1.067,1.067,1.067,2.133,1.067,3.2l-6.4,19.2c-1.067,2.133,2.133,4.267,4.267,3.2L253.867,384
	c1.067-1.067,2.133-1.067,3.2,0l17.067,11.733c2.133,1.067,5.333-1.067,4.267-3.2l-6.4-19.2c0-1.067,0-2.133,1.067-3.2L288,358.4z"
	/>
<g>
</g>
<g>
</g>
<g>
</g>
<g>
</g>
<g>
</g>
<g>
</g>
<g>
</g>
<g>
</g>
<g>
</g>
<g>
</g>
<g>
</g>
<g>
</g>
<g>
</g>
<g>
</g>
<g>
</g>
</svg>
