<?xml version="1.0" encoding="iso-8859-1"?>
<!-- Generator: Adobe Illustrator 19.0.0, SVG Export Plug-In . SVG Version: 6.00 Build 0)  -->
<svg version="1.1" id="Capa_1" xmlns="http://www.w3.org/2000/svg" xmlns:xlink="http://www.w3.org/1999/xlink" x="0px" y="0px"
	 viewBox="0 0 512 512" style="enable-background:new 0 0 512 512;" xml:space="preserve">
<path style="fill:#47821C;" d="M248.557,44.361c-4.533-1.102-9.124,1.602-10.357,6.1c-0.433,1.579-10.39,39.047,8.752,71.55
	c11.731,19.919,31.575,33.398,58.982,40.062c2.311,0.562,4.636,0.136,6.523-1.013c1.816-1.105,3.229-2.881,3.834-5.086
	c0.433-1.579,10.39-39.047-8.752-71.55C295.808,64.504,275.965,51.024,248.557,44.361z"/>
<g>
	<path style="fill:#4E901E;" d="M238.197,50.455c-0.433,1.579-10.39,39.047,8.752,71.55c11.731,19.919,31.575,33.398,58.982,40.062
		c2.311,0.562,4.636,0.136,6.523-1.013L242.036,45.379C240.22,46.485,238.802,48.25,238.197,50.455z"/>
	<path style="fill:#4E901E;" d="M424.283,88.979c0.776-4.6-2.249-8.986-6.824-9.895c-1.606-0.319-39.69-7.573-70.742,13.843
		c-19.029,13.125-31.055,33.881-35.743,61.695c-0.395,2.345,0.196,4.634,1.478,6.434c1.233,1.733,3.105,3.015,5.347,3.46
		c1.606,0.319,39.69,7.573,70.742-13.843C407.569,137.549,419.595,116.794,424.283,88.979z"/>
</g>
<path style="fill:#47821C;" d="M417.463,79.081c-1.606-0.319-39.69-7.573-70.742,13.843c-19.029,13.125-31.055,33.881-35.743,61.695
	c-0.395,2.345,0.196,4.634,1.478,6.434l110.346-78.506C421.569,80.815,419.706,79.527,417.463,79.081z"/>
<path style="fill:#5EAC24;" d="M354.86,34.95c-2.265-4.078-7.366-5.618-11.507-3.473c-1.455,0.753-35.739,18.85-46.639,54.962
	c-6.679,22.131-3.124,45.854,10.57,70.514c1.154,2.079,3.044,3.498,5.17,4.106c2.044,0.585,4.307,0.418,6.337-0.634
	c1.455-0.753,35.739-18.85,46.639-54.962C372.109,83.333,368.553,59.61,354.86,34.95z"/>
<path style="fill:#4E901E;" d="M343.354,31.472c-1.455,0.753-35.739,18.85-46.639,54.962c-6.679,22.131-3.124,45.854,10.57,70.514
	c1.155,2.079,3.044,3.498,5.17,4.106l37.233-130.204C347.644,30.265,345.385,30.42,343.354,31.472z"/>
<path style="fill:#D1E7F8;" d="M427.356,155.873c-5.268-5.944-12.83-9.346-20.772-9.346H105.416c-7.942,0-15.504,3.402-20.772,9.346
	c-5.268,5.943-7.737,13.858-6.785,21.743l37.473,309.958C117.016,501.514,128.846,512,142.888,512h226.223
	c14.041,0,25.872-10.486,27.557-24.426l37.473-309.958C435.094,169.731,432.624,161.815,427.356,155.873z"/>
<path style="fill:#B9D8F4;" d="M216.03,487.574l-37.473-309.958c-0.953-7.885,1.516-15.8,6.785-21.743
	c5.268-5.944,12.83-9.346,20.772-9.346H105.416c-7.942,0-15.504,3.402-20.772,9.346c-5.268,5.943-7.737,13.858-6.785,21.743
	l37.473,309.958C117.016,501.514,128.847,512,142.888,512h100.699C229.546,511.999,217.715,501.513,216.03,487.574z"/>
<path style="fill:#FFFFFF;" d="M366.546,438.687c-2.65-2.99-6.453-4.702-10.449-4.702H155.901c-3.996,0-7.799,1.711-10.449,4.702
	c-2.651,2.99-3.892,6.972-3.413,10.937l2.263,18.715c0.848,7.013,6.798,12.287,13.862,12.287h195.671
	c7.063,0,13.014-5.275,13.862-12.287l2.263-18.715C370.44,445.658,369.197,441.676,366.546,438.687z"/>
<path style="fill:#D1E7F8;" d="M155.901,433.985c-3.996,0-7.799,1.711-10.449,4.702c-2.651,2.99-3.892,6.972-3.413,10.937
	l2.263,18.715c0.848,7.013,6.798,12.287,13.862,12.287h57.026l-5.639-46.642H155.901z"/>
<path style="fill:#3E3D42;" d="M221.844,263.143L221.844,263.143c-7.057,2.472-14.853-1.279-17.325-8.334L121.585,18.086
	c-2.472-7.057,1.279-14.853,8.334-17.325l0,0c7.057-2.472,14.853,1.279,17.325,8.334l82.935,236.722
	C232.652,252.874,228.901,260.671,221.844,263.143z"/>
<path style="fill:#1D1D1F;" d="M204.52,254.807c2.472,7.057,10.268,10.807,17.325,8.334c7.057-2.472,10.807-10.268,8.334-17.325
	l-34.786-99.291h-28.809L204.52,254.807z"/>
<path style="fill:#FFFFFF;" d="M399.707,198.324c0-11.754-9.529-21.283-21.283-21.283c-7.375,0-13.871,3.753-17.69,9.451
	c-3.819-5.698-10.314-9.451-17.69-9.451c-7.374,0-13.871,3.753-17.69,9.451c-3.819-5.698-10.314-9.451-17.69-9.451
	s-13.871,3.753-17.69,9.451c-3.819-5.698-10.314-9.451-17.69-9.451c-7.376,0-13.871,3.753-17.69,9.451
	c-3.819-5.698-10.314-9.451-17.69-9.451c-7.375,0-13.871,3.753-17.69,9.451c-3.819-5.698-10.314-9.451-17.69-9.451
	c-7.376,0-13.871,3.753-17.69,9.451c-3.819-5.698-10.314-9.451-17.69-9.451c-7.376,0-13.871,3.753-17.69,9.451
	c-3.819-5.698-10.314-9.451-17.69-9.451c-11.754,0-21.283,9.529-21.283,21.283l23.063,191.849
	c0.862,7.122,6.906,12.481,14.08,12.481h215.806c7.175,0,13.219-5.357,14.08-12.481L399.707,198.324z"/>
<path style="fill:#DDFFFB;" d="M166.154,177.041c-7.374,0-13.871,3.753-17.69,9.451c-3.819-5.698-10.315-9.451-17.69-9.451
	c-11.754,0-21.283,9.529-21.283,21.283l23.063,191.849c0.862,7.122,6.906,12.481,14.08,12.481h59.128l-26.751-221.275
	C175.44,178.662,170.989,177.041,166.154,177.041z"/>
<path style="fill:#5EAC24;" d="M360.764,299.299c-3.819-5.698-10.314-9.451-17.69-9.451c-7.374,0-13.871,3.753-17.69,9.451
	c-3.819-5.698-10.314-9.451-17.69-9.451c-7.375,0-13.871,3.753-17.69,9.451c-3.819-5.698-10.314-9.451-17.69-9.451
	c-7.375,0-13.871,3.753-17.69,9.451c-3.819-5.698-10.314-9.451-17.69-9.451c-7.375,0-13.871,3.753-17.69,9.451
	c-3.819-5.698-10.314-9.451-17.69-9.451c-7.376,0-13.871,3.753-17.69,9.451c-3.819-5.698-10.315-9.451-17.69-9.451
	s-13.871,3.753-17.69,9.451c-3.819-5.698-10.315-9.451-17.69-9.451c-3.609,0-7.003,0.905-9.98,2.49l11.761,97.836
	c0.862,7.122,6.906,12.481,14.08,12.481h215.806c7.175,0,13.219-5.358,14.08-12.481l11.827-97.863
	c-2.965-1.566-6.338-2.463-9.924-2.463C371.078,289.848,364.583,293.601,360.764,299.299z"/>
<g>
	<path style="fill:#4E901E;" d="M183.872,299.299c-3.819-5.698-10.315-9.451-17.69-9.451c-7.374,0-13.871,3.753-17.69,9.451
		c-3.819-5.698-10.315-9.451-17.69-9.451c-3.609,0-7.003,0.905-9.98,2.49l11.761,97.836c0.862,7.122,6.906,12.481,14.08,12.481h59.1
		l-13.385-110.722C188.926,293.587,185.986,296.143,183.872,299.299z"/>
	<path style="fill:#4E901E;" d="M341.227,379.125h-11.502c-4.332,0-7.843-3.512-7.843-7.843s3.511-7.843,7.843-7.843h11.502
		c4.332,0,7.843,3.512,7.843,7.843S345.559,379.125,341.227,379.125z"/>
	<path style="fill:#4E901E;" d="M305.672,379.125H263.32c-4.332,0-7.843-3.512-7.843-7.843s3.511-7.843,7.843-7.843h42.352
		c4.332,0,7.843,3.512,7.843,7.843S310.004,379.125,305.672,379.125z"/>
</g>
<path style="fill:#5EAC24;" d="M166.93,216.206c-2.214-0.454-4.388,0.935-4.906,3.134c-0.182,0.772-4.345,19.081,5.49,34.478
	c6.028,9.436,15.868,15.612,29.25,18.358c1.128,0.231,2.246-0.016,3.139-0.604c0.86-0.567,1.512-1.45,1.766-2.529
	c0.182-0.772,4.345-19.081-5.49-34.478C190.153,225.128,180.313,218.952,166.93,216.206z"/>
<path style="fill:#4E901E;" d="M162.023,219.338c-0.182,0.772-4.345,19.081,5.49,34.478c6.028,9.436,15.868,15.612,29.25,18.358
	c1.128,0.231,2.246-0.016,3.139-0.604l-36.11-54.755C162.932,217.38,162.276,218.26,162.023,219.338z"/>
<path style="fill:#5EAC24;" d="M283.78,234.021c0.645-2.166-0.548-4.453-2.694-5.161c-0.753-0.249-18.629-5.994-34.826,2.46
	c-9.926,5.181-16.938,14.445-20.84,27.536c-0.329,1.103-0.181,2.239,0.328,3.18c0.489,0.906,1.313,1.633,2.365,1.981
	c0.753,0.249,18.629,5.994,34.826-2.46C272.866,256.377,279.877,247.114,283.78,234.021z"/>
<path style="fill:#4E901E;" d="M281.088,228.859c-0.753-0.249-18.629-5.994-34.826,2.46c-9.926,5.181-16.938,14.445-20.84,27.536
	c-0.329,1.103-0.181,2.239,0.328,3.18l57.698-31.194C282.959,229.937,282.14,229.207,281.088,228.859z"/>
<path style="fill:#5EAC24;" d="M337.317,224.491c-0.163-2.254-2.09-3.971-4.347-3.872c-0.793,0.035-19.545,0.992-31.697,14.634
	c-7.448,8.36-10.724,19.507-9.738,33.133c0.083,1.149,0.624,2.157,1.434,2.858c0.779,0.673,1.807,1.062,2.913,1.014
	c0.793-0.034,19.545-0.992,31.697-14.634C335.027,249.265,338.303,238.117,337.317,224.491z"/>
<path style="fill:#4E901E;" d="M332.972,220.618c-0.793,0.035-19.545,0.992-31.697,14.634c-7.448,8.36-10.724,19.507-9.738,33.133
	c0.083,1.149,0.624,2.157,1.434,2.858l42.911-49.605C335.102,220.962,334.079,220.57,332.972,220.618z"/>
<g>
</g>
<g>
</g>
<g>
</g>
<g>
</g>
<g>
</g>
<g>
</g>
<g>
</g>
<g>
</g>
<g>
</g>
<g>
</g>
<g>
</g>
<g>
</g>
<g>
</g>
<g>
</g>
<g>
</g>
</svg>
