<?xml version="1.0" encoding="iso-8859-1"?>
<!-- Generator: Adobe Illustrator 19.0.0, SVG Export Plug-In . SVG Version: 6.00 Build 0)  -->
<svg xmlns="http://www.w3.org/2000/svg" xmlns:xlink="http://www.w3.org/1999/xlink" version="1.1" id="Capa_1" x="0px" y="0px" viewBox="0 0 462.5 462.5" style="enable-background:new 0 0 462.5 462.5;" xml:space="preserve" width="512" height="512">
<g>
	<rect x="140.841" y="272.917" style="fill:#FFE29E;" width="15" height="172.083"/>
	<polygon style="fill:#FFE29E;" points="200.711,0 205.661,111.95 158.321,131.95 175.741,0  "/>
	<polygon style="fill:#FFF1CF;" points="175.741,0 178.321,111.95 134.671,141.95 91.021,111.95 95.971,0  "/>
	<path style="fill:#FFB751;" d="M211.181,237.18l-5.52-125.23h-27.34l-29.98,190.96c34.74,0,62.91-28.16,62.91-62.9   C211.251,239.06,211.221,238.12,211.181,237.18z"/>
	<path style="fill:#FFD764;" d="M181.211,237.18c0.03,0.94,0.04,1.88,0.04,2.83c0,34.74-14.74,62.9-32.91,62.9   c-34.74,0-62.91-28.16-62.91-62.9c0-0.95,0.03-1.89,0.07-2.83l5.52-125.23h87.3L181.211,237.18z"/>
	<rect x="306.659" y="272.915" style="fill:#FFE29E;" width="15" height="172.083"/>
	<path style="fill:#FFFFFF;" d="M118.271,182.748c-0.112,0-0.224-0.002-0.336-0.007c-4.138-0.183-7.345-3.685-7.162-7.823   l1.469-33.297c0.183-4.138,3.693-7.338,7.823-7.162c4.138,0.183,7.345,3.685,7.162,7.823l-1.469,33.297   C125.58,179.604,122.261,182.748,118.271,182.748z"/>
	<path style="fill:#FFFFFF;" d="M148.341,280.417c-22.281,0-40.409-18.127-40.409-40.409c0-0.613,0.022-1.22,0.049-1.827   l1.469-33.293c0.183-4.138,3.691-7.345,7.823-7.162c4.138,0.183,7.345,3.685,7.162,7.823l-1.469,33.295   c-0.017,0.387-0.035,0.774-0.035,1.164c0,14.01,11.398,25.409,25.409,25.409c4.142,0,7.5,3.358,7.5,7.5   S152.483,280.417,148.341,280.417z"/>
	<path style="fill:#FFD764;" d="M210.841,447.5H177.94c-7.885-5.676-14.264-12.5-29.599-12.5s-21.714,6.824-29.599,12.5H85.841   c-4.142,0-7.5,3.358-7.5,7.5s3.358,7.5,7.5,7.5h125c4.142,0,7.5-3.358,7.5-7.5S214.983,447.5,210.841,447.5z"/>
	<circle style="fill:#FFF1CF;" cx="158.341" cy="212.917" r="7.5"/>
	<circle style="fill:#FFF1CF;" cx="178.418" cy="175.248" r="7.5"/>
	<polygon style="fill:#FFE29E;" points="366.53,0 371.48,111.95 324.14,131.95 341.56,0  "/>
	<polygon style="fill:#FFF1CF;" points="341.56,0 344.14,111.95 300.49,141.95 256.84,111.95 261.79,0  "/>
	<path style="fill:#FFB751;" d="M377,237.18l-5.52-125.23h-27.34l-29.98,190.96c34.74,0,62.91-28.16,62.91-62.9   C377.07,239.06,377.04,238.12,377,237.18z"/>
	<path style="fill:#FFD764;" d="M347.03,237.18c0.03,0.94,0.04,1.88,0.04,2.83c0,34.74-14.74,62.9-32.91,62.9   c-34.74,0-62.91-28.16-62.91-62.9c0-0.95,0.03-1.89,0.07-2.83l5.52-125.23h87.3L347.03,237.18z"/>
	<path style="fill:#FFFFFF;" d="M284.09,182.746c-0.112,0-0.224-0.002-0.336-0.007c-4.138-0.183-7.345-3.685-7.162-7.823   l1.469-33.297c0.183-4.138,3.692-7.336,7.823-7.162c4.138,0.183,7.345,3.685,7.162,7.823l-1.469,33.297   C291.399,179.602,288.08,182.746,284.09,182.746z"/>
	<path style="fill:#FFFFFF;" d="M314.159,280.415c-22.281,0-40.409-18.127-40.409-40.409c0-0.613,0.022-1.22,0.049-1.827   l1.469-33.293c0.183-4.138,3.69-7.343,7.823-7.162c4.138,0.183,7.345,3.685,7.162,7.823l-1.469,33.295   c-0.017,0.387-0.035,0.774-0.035,1.164c0,14.01,11.398,25.409,25.409,25.409c4.142,0,7.5,3.358,7.5,7.5   S318.302,280.415,314.159,280.415z"/>
	<path style="fill:#FFD764;" d="M376.659,447.498h-32.901c-7.885-5.676-14.264-12.5-29.599-12.5s-21.714,6.824-29.599,12.5h-32.901   c-4.142,0-7.5,3.358-7.5,7.5s3.358,7.5,7.5,7.5h125c4.142,0,7.5-3.358,7.5-7.5S380.802,447.498,376.659,447.498z"/>
	<circle style="fill:#FFF1CF;" cx="314.16" cy="232.915" r="7.5"/>
	<circle style="fill:#FFF1CF;" cx="314.16" cy="141.949" r="7.5"/>
	<circle style="fill:#FFF1CF;" cx="344.237" cy="175.246" r="7.5"/>
</g>















</svg>
