<?xml version="1.0" encoding="iso-8859-1"?>
<!-- Generator: Adobe Illustrator 19.0.0, SVG Export Plug-In . SVG Version: 6.00 Build 0)  -->
<svg version="1.1" id="Capa_1" xmlns="http://www.w3.org/2000/svg" xmlns:xlink="http://www.w3.org/1999/xlink" x="0px" y="0px"
	 viewBox="0 0 360 360" style="enable-background:new 0 0 360 360;" xml:space="preserve">
<g id="XMLID_825_">
	<path id="XMLID_826_" style="fill:#FFDA44;" d="M35.714,60c0-18.936,15.35-34.286,34.286-34.286V0C36.863,0,10,26.863,10,60
		s26.863,60,60,60V94.286C51.064,94.286,35.714,78.936,35.714,60z"/>
	<path id="XMLID_827_" style="fill:#FF9811;" d="M90.572,87.429c-5.73,4.305-12.853,6.857-20.572,6.857V120
		c13.508,0,25.972-4.466,36.001-11.999L100,100L90.572,87.429z"/>
	<path id="XMLID_828_" style="fill:#FF9811;" d="M104.286,60H130c0-33.137-26.863-60-60-60v25.714
		C88.936,25.714,104.286,41.064,104.286,60z"/>
	<path id="XMLID_829_" style="fill:#FFF0B4;" d="M104.286,60c0-18.936-15.35-34.286-34.286-34.286
		c-18.936,0-34.286,15.35-34.286,34.286S51.064,94.286,70,94.286c7.719,0,14.841-2.552,20.572-6.857L70,60H104.286z"/>
	<polygon id="XMLID_830_" style="fill:#CCF8F3;" points="210,220 190,220 190,328.889 120,360 210,360 	"/>
	<polygon id="XMLID_831_" style="fill:#00D7DF;" points="210,220 210,360 300,360 230,328.889 230,220 	"/>
	<polygon id="XMLID_832_" style="fill:#CCF8F3;" points="70,60 100,100 210,100 210,60 	"/>
	<path id="XMLID_833_" style="fill:#EA348B;" d="M210,100H100l90,120h20V100z M175,150c-8.284,0-15-6.716-15-15s6.716-15,15-15
		s15,6.716,15,15S183.284,150,175,150z"/>
	<polygon id="XMLID_836_" style="fill:#00D7DF;" points="320,100 350,60 210,60 210,100 	"/>
	<path id="XMLID_837_" style="fill:#B02768;" d="M210,220h20l90-120H210V220z M235,150c8.284,0,15,6.716,15,15s-6.716,15-15,15
		s-15-6.716-15-15S226.716,150,235,150z"/>
	<circle id="XMLID_840_" style="fill:#FFFFFF;" cx="175" cy="135" r="15"/>
	<circle id="XMLID_841_" style="fill:#FFFFFF;" cx="235" cy="165" r="15"/>
</g>
<g>
</g>
<g>
</g>
<g>
</g>
<g>
</g>
<g>
</g>
<g>
</g>
<g>
</g>
<g>
</g>
<g>
</g>
<g>
</g>
<g>
</g>
<g>
</g>
<g>
</g>
<g>
</g>
<g>
</g>
</svg>
