<?xml version="1.0" encoding="iso-8859-1"?>
<!-- Generator: Adobe Illustrator 19.0.0, SVG Export Plug-In . SVG Version: 6.00 Build 0)  -->
<svg version="1.1" id="Layer_1" xmlns="http://www.w3.org/2000/svg" xmlns:xlink="http://www.w3.org/1999/xlink" x="0px" y="0px"
	 viewBox="0 0 512 512" style="enable-background:new 0 0 512 512;" xml:space="preserve">
<path style="fill:#FFF082;" d="M364.475,216.949c-47.847,0-86.78-38.928-86.78-86.78s38.933-86.78,86.78-86.78
	s86.78,38.928,86.78,86.78S412.322,216.949,364.475,216.949z"/>
<path style="fill:#FF6987;" d="M364.475,60.746c-38.28,0-69.424,31.144-69.424,69.424s31.144,69.424,69.424,69.424
	s69.424-31.144,69.424-69.424S402.754,60.746,364.475,60.746z"/>
<path style="fill:#F05573;" d="M376.745,130.169l28.577-28.577c3.39-3.39,3.39-8.881,0-12.271s-8.882-3.39-12.271,0l-28.577,28.575
	l-28.577-28.577c-3.39-3.39-8.882-3.39-12.271,0c-3.39,3.39-3.39,8.881,0,12.271l28.575,28.578l-28.577,28.577
	c-3.39,3.39-3.39,8.881,0,12.271c1.695,1.695,3.915,2.543,6.135,2.543c2.22,0,4.441-0.847,6.135-2.543l28.578-28.577l28.577,28.577
	c1.695,1.695,3.915,2.543,6.135,2.543c2.22,0,4.441-0.847,6.135-2.543c3.39-3.39,3.39-8.881,0-12.271L376.745,130.169z"/>
<circle style="fill:#FFF082;" cx="364.475" cy="130.169" r="8.678"/>
<path style="fill:#CDEBFF;" d="M330.629,512H172.692c-9.24,0-16.86-7.24-17.333-16.468l-16.511-321.973v-34.712
	c0-4.792,3.886-8.678,8.678-8.678h208.271c4.792,0,8.678,3.886,8.678,8.678v34.712l-16.511,321.973
	C347.49,504.76,339.869,512,330.629,512z"/>
<path style="fill:#00AAF0;" d="M223.749,182.237c-4.85,0-8.758,3.975-8.677,8.823l0.441,51.922h21.678l-9.718-60.746H223.749z"/>
<path style="fill:#B9DCF5;" d="M329.763,164.881H223.458c-4.792,0-8.678-3.886-8.678-8.678v-26.034h-67.254
	c-4.792,0-8.678,3.886-8.678,8.678v34.712l16.512,321.973c0.473,9.228,8.093,16.468,17.333,16.468h53.151
	c-3.021,0-5.513-7.24-5.667-16.468l-5.104-304.472c-0.081-4.849,3.827-8.823,8.677-8.823h106.012c4.792,0,8.678-3.886,8.678-8.678
	C338.441,168.766,334.555,164.881,329.763,164.881z"/>
<path style="fill:#C8FF82;" d="M165.572,355.797H337.75l5.798-113.061c-18.352-1.368-20.556-8.431-42.787-8.431
	c-24.589,0-24.589,8.678-49.178,8.678c-24.568,0-24.568-8.678-49.136-8.678c-22.18,0-24.405,7.045-42.674,8.425L165.572,355.797z"/>
<g>
	<path style="fill:#B4E66E;" d="M217.834,355.797l-2.018-120.358c-3.599-0.68-7.844-1.134-13.369-1.134
		c-22.18,0-24.405,7.045-42.674,8.425l5.799,113.066H217.834z"/>
	<path style="fill:#B4E66E;" d="M180.937,494.644h141.449c4.62,0,8.43-3.62,8.667-8.233l8.953-174.603
		c-15.204-1.945-18.527-8.079-39.244-8.079c-24.589,0-24.589,8.678-49.178,8.678c-24.568,0-24.568-8.678-49.136-8.678
		c-20.663,0-24.005,6.116-39.132,8.069l8.955,174.612C172.506,491.024,176.317,494.644,180.937,494.644z"/>
</g>
<path style="fill:#93D46E;" d="M202.447,303.729c-20.663,0-24.005,6.116-39.132,8.069l8.955,174.612
	c0.236,4.613,4.046,8.233,8.666,8.233h39.227l-3.178-189.568C213.156,304.268,208.564,303.729,202.447,303.729z"/>
<path style="fill:#FFF082;" d="M160.217,251.382l0.206-0.001c9.288-0.7,15.127-2.75,20.279-4.559
	c5.864-2.059,10.932-3.839,21.746-3.839c10.796,0,15.839,1.78,21.678,3.843c6.415,2.267,13.686,4.835,27.457,4.835
	c13.78,0,21.051-2.568,27.474-4.835c5.848-2.063,10.89-3.843,21.704-3.843c10.83,0,15.898,1.78,21.771,3.839
	c5.089,1.79,10.892,3.796,20.571,4.545l0.887-17.306c-6.915-0.539-11.009-1.964-15.714-3.617c-6.44-2.258-13.737-4.817-27.517-4.817
	c-13.788,0-21.059,2.568-27.483,4.835c-5.839,2.063-10.89,3.843-21.695,3.843c-10.796,0-15.839-1.78-21.678-3.843
	c-6.415-2.267-13.686-4.835-27.457-4.835c-13.771,0-21.059,2.559-27.492,4.817c-4.746,1.665-8.839,3.101-15.229,3.606l-0.4,0.001
	L160.217,251.382z"/>
<path style="fill:#00C3FF;" d="M219.141,130.169l-17.319-108.25C199.788,9.22,188.983,0,176.118,0H69.424
	c-4.797,0-8.678,3.886-8.678,8.678s3.881,8.678,8.678,8.678h106.695c4.288,0,7.889,3.072,8.567,7.309l16.881,105.505H219.141z"/>
<path style="fill:#93D46E;" d="M171.357,468.61l0.913,17.801c0.236,4.613,4.046,8.233,8.666,8.233h141.449
	c4.62,0,8.43-3.62,8.667-8.233l0.912-17.801H171.357z"/>
<path style="fill:#7DC86E;" d="M171.357,468.61l0.913,17.801c0.236,4.613,4.046,8.233,8.666,8.233h39.227l-0.436-26.034H171.357z"/>
<path style="fill:#FFDC64;" d="M202.449,242.983c5.859,0,10,0.535,13.517,1.343l-0.297-17.736c-3.673-0.588-7.97-0.964-13.22-0.964
	c-13.771,0-21.059,2.559-27.492,4.817c-4.746,1.665-8.839,3.101-15.229,3.606l-0.4,0.001l0.888,17.33l0.206-0.001
	c9.288-0.7,15.127-2.75,20.279-4.559C186.568,244.762,191.636,242.983,202.449,242.983z"/>
<g>
</g>
<g>
</g>
<g>
</g>
<g>
</g>
<g>
</g>
<g>
</g>
<g>
</g>
<g>
</g>
<g>
</g>
<g>
</g>
<g>
</g>
<g>
</g>
<g>
</g>
<g>
</g>
<g>
</g>
</svg>
