<?xml version="1.0" encoding="iso-8859-1"?>
<!-- Generator: Adobe Illustrator 19.0.0, SVG Export Plug-In . SVG Version: 6.00 Build 0)  -->
<svg version="1.1" id="Layer_1" xmlns="http://www.w3.org/2000/svg" xmlns:xlink="http://www.w3.org/1999/xlink" x="0px" y="0px"
	 viewBox="0 0 512 512" style="enable-background:new 0 0 512 512;" xml:space="preserve">
<polygon style="fill:#8AE9ED;" points="85.504,111.398 110.455,497 401.545,497 426.496,111.398 "/>
<polygon style="fill:#1CDAE3;" points="426.496,111.398 256,111.398 256,497 401.545,497 "/>
<path style="fill:#CAF9FF;" d="M443.678,4.741C440.842,1.717,436.881,0,432.734,0H79.266c-4.146,0-8.108,1.717-10.943,4.741
	c-2.836,3.025-4.293,7.09-4.025,11.228l6.238,96.398c0,0.001,0,0.001,0,0.001l24.951,385.601c0.51,7.891,7.06,14.031,14.968,14.031
	h291.09c7.908,0,14.458-6.14,14.969-14.031l24.951-385.601c0,0,0,0,0-0.001l6.238-96.398
	C447.971,11.831,446.514,7.767,443.678,4.741z M387.484,482H124.516l-23.01-355.602h308.988L387.484,482z"/>
<path style="fill:#8AE9ED;" d="M443.678,4.741C440.842,1.717,436.881,0,432.734,0H256v126.398h154.494L387.484,482H256v30h145.545
	c7.908,0,14.458-6.14,14.969-14.031l24.951-385.601c0,0,0,0,0-0.001l6.238-96.398C447.971,11.831,446.514,7.767,443.678,4.741z"/>
<path style="fill:#CAF9FF;" d="M320.268,192.8h-17.133v-81.401c0-8.283-6.716-15-15-15h-96.4c-8.284,0-15,6.717-15,15V207.8
	c0,8.284,6.716,15,15,15h17.133v81.399c0,8.284,6.716,15,15,15h96.4c8.284,0,15-6.716,15-15V207.8
	C335.268,199.516,328.552,192.8,320.268,192.8z"/>
<path style="fill:#8AE9ED;" d="M320.268,192.8h-17.133v-81.401c0-8.283-6.716-15-15-15H256V319.2h64.268c8.284,0,15-6.716,15-15
	v-96.4C335.268,199.516,328.552,192.8,320.268,192.8z"/>
<g>
</g>
<g>
</g>
<g>
</g>
<g>
</g>
<g>
</g>
<g>
</g>
<g>
</g>
<g>
</g>
<g>
</g>
<g>
</g>
<g>
</g>
<g>
</g>
<g>
</g>
<g>
</g>
<g>
</g>
</svg>
