<?xml version="1.0" encoding="iso-8859-1"?>
<!-- Generator: Adobe Illustrator 19.0.0, SVG Export Plug-In . SVG Version: 6.00 Build 0)  -->
<svg version="1.1" id="Layer_1" xmlns="http://www.w3.org/2000/svg" xmlns:xlink="http://www.w3.org/1999/xlink" x="0px" y="0px"
	 viewBox="0 0 512 512" style="enable-background:new 0 0 512 512;" xml:space="preserve">
<g>
	<path style="fill:#FFAB58;" d="M218.022,444.484v-50.637h-33.758v50.637c-18.645,0-33.758,15.114-33.758,33.758v22.505H251.78
		v-22.505C251.78,459.597,236.667,444.484,218.022,444.484z"/>
	<path style="fill:#FFAB58;" d="M302.418,478.242h-33.758L302.418,512h33.758C336.176,493.386,321.032,478.242,302.418,478.242z"/>
</g>
<path style="fill:#FFCD71;" d="M268.659,478.242H99.868c-18.614,0-33.758,15.144-33.758,33.758h236.308
	C302.418,493.386,287.274,478.242,268.659,478.242z"/>
<path style="fill:#FFAB58;" d="M358.681,84.396h-3.215l3.215-33.758h-33.758L223.648,405.099h33.758
	c37.134,0,70.397-30.245,73.917-67.213l3.244-34.062h24.114c60.594,0,109.714-49.12,109.714-109.714S419.275,84.396,358.681,84.396z
	 M358.681,270.066h-20.899l14.468-151.912h6.43c41.949,0,75.956,34.007,75.956,75.956S400.63,270.066,358.681,270.066z"/>
<path style="fill:#FFCD71;" d="M297.565,337.886l27.358-287.249H43.604l27.358,287.249c3.52,36.967,36.783,67.213,73.917,67.213
	h78.769C260.782,405.099,294.046,374.854,297.565,337.886z"/>
<path style="fill:#533672;" d="M284.581,84.396l-60.934,286.945h33.758c19.616,0,38.452-17.128,40.311-36.654l20.623-216.533
	L284.581,84.396z"/>
<path style="fill:#8C3B5C;" d="M83.945,118.154l20.622,216.532c1.86,19.526,20.697,36.655,40.312,36.655h78.769
	c19.616,0,38.452-17.128,40.311-36.654l23.837-250.292L83.945,118.154z"/>
<polygon style="fill:#FFCD71;" points="268.659,33.758 284.581,118.154 318.339,118.154 324.923,50.637 "/>
<g>
	<polygon style="fill:#FFE1AA;" points="77.363,50.637 83.945,118.154 284.581,118.154 292.966,30.103 	"/>
	<path style="fill:#FFE1AA;" d="M291.165,0l-22.505,50.637h56.264c0,0,0,1.766,0-16.879S309.81,0,291.165,0z"/>
</g>
<path style="fill:#FFF5E3;" d="M261.157,18.298C255.549,7.434,244.221,0,231.151,0c-13.07,0-24.398,7.434-30.008,18.299
	C195.533,7.434,184.206,0,171.135,0s-24.398,7.434-30.008,18.298C135.519,7.434,124.192,0,111.121,0
	C92.477,0,77.363,15.114,77.363,33.758s0,16.879,0,16.879h213.802V0C278.095,0,266.767,7.434,261.157,18.298z"/>
<g>
</g>
<g>
</g>
<g>
</g>
<g>
</g>
<g>
</g>
<g>
</g>
<g>
</g>
<g>
</g>
<g>
</g>
<g>
</g>
<g>
</g>
<g>
</g>
<g>
</g>
<g>
</g>
<g>
</g>
</svg>
