<?xml version="1.0" encoding="iso-8859-1"?>
<!-- Generator: Adobe Illustrator 19.0.0, SVG Export Plug-In . SVG Version: 6.00 Build 0)  -->
<svg version="1.1" id="Layer_1" xmlns="http://www.w3.org/2000/svg" xmlns:xlink="http://www.w3.org/1999/xlink" x="0px" y="0px"
	 viewBox="0 0 492.3 492.3" style="enable-background:new 0 0 492.3 492.3;" xml:space="preserve">
<g>
	<path style="fill:#FFFCEE;" d="M138.15,492.3h216.8c0.8,0,0.8-2.4,0.8-3.2c0-7.2-48.8-28.8-109.6-28.8s-109.6,21.6-109.6,28.8
		C136.55,489.9,137.35,492.3,138.15,492.3z"/>
	<polygon style="fill:#FFFCEE;" points="258.95,475.5 246.15,479.5 233.35,475.5 239.75,316.3 246.15,306.7 252.55,316.3 	"/>
</g>
<polyline style="fill:#EDE9D9;" points="246.15,306.7 252.55,316.3 258.95,475.5 246.15,479.5 "/>
<ellipse transform="matrix(0.2034 0.9791 -0.9791 0.2034 616.0479 191.793)" style="fill:#FFFFFF;" cx="190.158" cy="474.486" rx="4.8" ry="30.4"/>
<polygon style="fill:#FFFCEE;" points="36.55,124.3 246.15,333.9 455.75,124.3 "/>
<polygon style="fill:#EDE9D9;" points="178.15,124.3 246.15,333.9 455.75,124.3 "/>
<polygon style="fill:#E8E3CF;" points="68.55,124.3 246.15,301.9 423.75,124.3 "/>
<polygon style="fill:#D8D2BA;" points="216.55,124.3 246.15,301.9 423.75,124.3 "/>
<polygon style="fill:#0DBC69;" points="129.35,180.3 246.15,297.1 362.95,180.3 "/>
<polygon style="fill:#00A057;" points="226.95,180.3 246.15,297.1 362.95,180.3 "/>
<path style="fill:#EDE9D9;" d="M354.15,492.3c0.8,0,0.8-2.4,0.8-3.2c0-7.2-48.8-29.6-109.6-29.6v32.8H354.15z"/>
<path style="fill:#0DBC69;" d="M300.55,239.5c-0.8,2.4-3.2,3.2-5.6,2.4l0,0c-2.4-0.8-3.2-3.2-2.4-5.6l93.6-233.6
	c0.8-2.4,3.2-3.2,5.6-2.4l0,0c2.4,0.8,3.2,3.2,2.4,5.6L300.55,239.5z"/>
<rect x="350.338" y="73.978" transform="matrix(0.9284 0.3717 -0.3717 0.9284 59.7494 -125.2322)" style="fill:#038443;" width="8.8" height="36.802"/>
<circle style="fill:#A51919;" cx="365.35" cy="66.7" r="28"/>
<path style="fill:#8C0303;" d="M390.95,55.5c6.4,14.4-0.8,31.2-15.2,37.6c-14.4,6.4-31.2-0.8-37.6-15.2"/>
<ellipse transform="matrix(-0.3928 -0.9196 0.9196 -0.3928 455.0462 398.4883)" style="fill:#E25454;" cx="359.077" cy="49.019" rx="4" ry="11.2"/>
<rect x="320.139" y="149.294" transform="matrix(0.9281 0.3723 -0.3723 0.9281 85.764 -108.7717)" style="fill:#038443;" width="8.8" height="36.8"/>
<circle style="fill:#A51919;" cx="334.95" cy="141.9" r="28"/>
<path style="fill:#8C0303;" d="M360.55,130.7c6.4,14.4-0.8,31.2-15.2,37.6c-14.4,6.4-31.2-0.8-37.6-15.2"/>
<ellipse transform="matrix(-0.3928 -0.9196 0.9196 -0.3928 343.2592 475.1736)" style="fill:#E25454;" cx="328.499" cy="124.266" rx="4" ry="11.2"/>
<path style="fill:#FFFCEE;" d="M423.75,136.3c0,1.6-1.6,4-3.2,4H71.75c-1.6,0-3.2-2.4-3.2-4l0,0c0-1.6,1.6-4,3.2-4h348
	C422.15,132.3,423.75,134.7,423.75,136.3L423.75,136.3z"/>
<polygon style="fill:#48EF97;" points="228.55,265.1 158.15,193.9 202.15,209.1 "/>
<g>
</g>
<g>
</g>
<g>
</g>
<g>
</g>
<g>
</g>
<g>
</g>
<g>
</g>
<g>
</g>
<g>
</g>
<g>
</g>
<g>
</g>
<g>
</g>
<g>
</g>
<g>
</g>
<g>
</g>
</svg>
