<?xml version="1.0" encoding="iso-8859-1"?>
<!-- Generator: Adobe Illustrator 19.0.0, SVG Export Plug-In . SVG Version: 6.00 Build 0)  -->
<svg version="1.1" id="Capa_1" xmlns="http://www.w3.org/2000/svg" xmlns:xlink="http://www.w3.org/1999/xlink" x="0px" y="0px"
	 viewBox="0 0 512 512" style="enable-background:new 0 0 512 512;" xml:space="preserve">
<path style="fill:#FF9811;" d="M453.825,46.792C403.891-7.192,322.623-14.868,263.88,25.86c-9.03,6.26-10.296,19.147-2.835,27.213
	L432.565,238.5c7.461,8.066,20.407,7.806,27.351-0.709C505.09,182.393,503.759,100.774,453.825,46.792z"/>
<path style="fill:#EE8700;" d="M305.282,93.199c53.668-37.209,124.966-36.522,177.774,0.643c-6.448-16.93-16.175-32.936-29.23-47.05
	C403.891-7.192,322.623-14.868,263.88,25.86c-9.03,6.26-10.297,19.147-2.835,27.213l40.407,43.683
	C302.537,95.437,303.799,94.226,305.282,93.199z"/>
<path style="fill:#FFB655;" d="M428.459,234.062c48.675-45.025,51.645-121.255,6.62-169.931
	c-45.024-48.675-121.254-51.645-169.93-6.62L428.459,234.062z"/>
<path style="fill:#FFA733;" d="M305.282,93.199c40.987-28.418,92.257-34.73,137.722-19.573c-2.452-3.264-5.092-6.433-7.924-9.494
	c-45.024-48.675-121.254-51.645-169.93-6.62l36.302,39.245C302.537,95.437,303.799,94.226,305.282,93.199z"/>
<path style="fill:#FFC477;" d="M435.079,64.131c-14.897-16.106-33.22-27.174-52.823-33.189l-35.453,114.845l117.255-26.41
	C459.587,99.366,449.978,80.238,435.079,64.131z"/>
<path style="fill:#FFB655;" d="M442.995,73.623c-2.45-3.263-5.086-6.432-7.916-9.492c-14.897-16.106-33.22-27.174-52.823-33.189
	l-11.218,36.34C395.112,63.756,419.808,65.894,442.995,73.623z"/>
<path style="fill:#D1E7F8;" d="M19.552,135.613l11.376,133.412c0.777,9.112,4.406,17.747,10.37,24.679l21.914,25.467
	c8.502,9.882,13.945,22.024,15.663,34.946l16.607,124.919C97.99,497.905,114.082,512,133.117,512h147.687
	c19.035,0,35.127-14.095,37.635-32.963l16.607-124.919c1.718-12.923,7.16-25.065,15.663-34.946l21.914-25.468
	c5.965-6.932,9.593-15.567,10.37-24.679l11.376-133.412c1.922-22.542-15.858-41.903-38.481-41.903H58.034
	C35.409,93.71,17.629,113.07,19.552,135.613z"/>
<path style="fill:#B9D8F4;" d="M210.9,479.037l-16.607-124.919c-1.718-12.923-7.16-25.065-15.663-34.946l-21.914-25.468
	c-5.965-6.932-9.593-15.567-10.37-24.679L134.97,135.613c-1.922-22.542,15.858-41.903,38.481-41.903H58.033
	c-22.625,0-40.404,19.36-38.481,41.903l11.376,133.412c0.777,9.112,4.405,17.747,10.37,24.679l21.914,25.467
	c8.502,9.882,13.945,22.024,15.663,34.946l16.607,124.919C97.99,497.905,114.082,512,133.117,512h115.418
	C229.5,512,213.408,497.905,210.9,479.037z"/>
<path style="fill:#96C8EF;" d="M88.64,314.772L88.64,314.772c-8.566,0-16.514,2.755-23.022,7.409
	c7.112,9.295,11.71,20.291,13.257,31.937l16.607,124.919c2.297,17.28,15.999,30.522,32.909,32.634V354.522
	C128.39,332.66,110.502,314.772,88.64,314.772z"/>
<g>
	<path style="fill:#B9D8F4;" d="M325.279,314.772L325.279,314.772c8.566,0,16.514,2.755,23.022,7.409
		c-7.112,9.295-11.71,20.291-13.257,31.937l-16.607,124.919c-2.297,17.28-15.999,30.522-32.909,32.634V354.522
		C285.529,332.66,303.416,314.772,325.279,314.772z"/>
	<path style="fill:#B9D8F4;" d="M246.711,511.671V354.522c0-21.862-17.888-39.751-39.751-39.751s-39.751,17.888-39.751,39.751
		v157.149L246.711,511.671L246.711,511.671z"/>
</g>
<path style="fill:#96C8EF;" d="M210.9,479.037l-16.607-124.919c-1.471-11.064-5.68-21.552-12.195-30.544
	c-9.061,7.302-14.889,18.474-14.889,30.948v157.149h76.361C226.765,509.468,213.187,496.239,210.9,479.037z"/>
<path style="fill:#FFDAAA;" d="M82.605,195.905c-17.368,0-31.017,14.861-29.54,32.167l3.307,38.783
	c0.322,3.788,1.805,7.313,4.283,10.195l21.914,25.467c11.766,13.675,19.242,30.353,21.619,48.236l16.607,124.919
	c0.821,6.178,6.09,10.793,12.322,10.793h147.687c6.233,0,11.501-4.615,12.322-10.792l16.607-124.918
	c2.376-17.881,9.852-34.561,21.618-48.237l21.915-25.466c2.479-2.881,3.96-6.408,4.285-10.195l3.307-38.783
	c1.475-17.305-12.173-32.167-29.54-32.167H82.605V195.905z"/>
<path style="fill:#FFC477;" d="M194.293,354.118c-1.718-12.923-7.16-25.065-15.663-34.946l-21.913-25.468
	c-5.965-6.932-9.593-15.567-10.371-24.679l-6.235-73.12H82.605c-17.368,0-31.017,14.861-29.54,32.167l3.307,38.783
	c0.322,3.788,1.805,7.313,4.283,10.195l21.914,25.467c11.767,13.675,19.242,30.353,21.619,48.236l16.607,124.919
	c0.821,6.178,6.09,10.793,12.322,10.793h79.55c-0.821-2.373-1.424-4.853-1.766-7.428L194.293,354.118z"/>
<path style="fill:#FFB655;" d="M91.541,314.772c6.623,10.901,10.946,23.07,12.647,35.863l16.607,124.919
	c0.602,4.525,3.593,8.201,7.597,9.851v-131C128.39,333.518,112.062,316.272,91.541,314.772z"/>
<path style="fill:#FFC477;" d="M206.959,314.772c-21.863,0-39.751,17.888-39.751,39.751v131.941h79.502V354.522
	C246.711,332.66,228.823,314.772,206.959,314.772z"/>
<path style="fill:#FFB655;" d="M194.293,354.118c-1.471-11.064-5.68-21.552-12.195-30.544c-9.061,7.302-14.889,18.474-14.889,30.948
	v131.941h45.457c-0.821-2.373-1.424-4.853-1.766-7.428L194.293,354.118z"/>
<path style="fill:#FFC477;" d="M322.377,314.772c-6.623,10.901-10.946,23.07-12.647,35.863l-16.607,124.919
	c-0.602,4.525-3.593,8.201-7.597,9.851v-131C285.529,333.518,301.857,316.272,322.377,314.772z"/>
<g>
</g>
<g>
</g>
<g>
</g>
<g>
</g>
<g>
</g>
<g>
</g>
<g>
</g>
<g>
</g>
<g>
</g>
<g>
</g>
<g>
</g>
<g>
</g>
<g>
</g>
<g>
</g>
<g>
</g>
</svg>
