<?xml version="1.0" encoding="iso-8859-1"?>
<!-- Generator: Adobe Illustrator 19.0.0, SVG Export Plug-In . SVG Version: 6.00 Build 0)  -->
<svg version="1.1" id="Capa_1" xmlns="http://www.w3.org/2000/svg" xmlns:xlink="http://www.w3.org/1999/xlink" x="0px" y="0px"
	 viewBox="0 0 512 512" style="enable-background:new 0 0 512 512;" xml:space="preserve">
<path style="fill:#D2FDFF;" d="M373.662,91.233c-4.374-4.614-10.518-7.256-16.874-7.256H92.196c-6.355,0-12.5,2.642-16.874,7.256
	c-4.374,4.624-6.675,10.909-6.325,17.254l5.444,98.759l12.67,229.564c2.322,42.164,37.22,75.19,79.454,75.19h115.853
	c42.234,0,77.132-33.026,79.454-75.19l12.77-231.405l5.344-96.918C380.337,102.142,378.035,95.857,373.662,91.233z M343.968,216.323
	l-12.07,218.835c-1.451,26.251-23.179,46.818-49.48,46.818H166.566c-26.301,0-48.028-20.566-49.48-46.818l-12.04-218.215
	l-5.675-102.942h250.24L343.968,216.323z"/>
<path style="fill:#74FFF4;" d="M379.987,108.487l-5.344,96.918l-12.77,231.405c-2.322,42.164-37.22,75.19-79.454,75.19h-57.876
	v-30.024h57.876c26.301,0,48.028-20.566,49.48-46.818l12.07-218.835l5.645-102.322h-125.07V83.977h132.246
	c6.355,0,12.5,2.642,16.874,7.256C378.035,95.857,380.337,102.142,379.987,108.487z"/>
<path style="fill:#FFBC64;" d="M374.642,205.404l-12.77,231.405c-2.322,42.164-37.22,75.19-79.454,75.19H166.566
	c-42.234,0-77.132-33.026-79.454-75.19l-12.67-229.564l30.605,9.698l19.355,6.125c20.126,6.575,41.473,6.815,61.739,0.671
	c12.56-3.803,25.48-5.715,38.401-5.725c12.88,0,25.771,1.872,38.291,5.635l0.641,0.19c20.176,6.065,41.423,5.805,61.449-0.731
	l19.045-6.785L374.642,205.404z"/>
<path style="fill:#F9A43E;" d="M374.642,205.404l-12.77,231.405c-2.322,42.164-37.22,75.19-79.454,75.19h-57.876V218.015
	c12.88,0,25.771,1.872,38.291,5.635l0.641,0.19c20.176,6.065,41.423,5.805,61.449-0.731l19.045-6.785L374.642,205.404z"/>
<path style="fill:#FFEDA1;" d="M443.037,15.012c0,8.297-6.725,15.012-15.012,15.012h-59.197c-16.583,0-30.965,10.669-35.799,26.531
	L224.542,414.392l-4.794,15.813c-1.972,6.475-7.926,10.659-14.362,10.659c-1.441,0-2.912-0.21-4.363-0.651
	c-7.936-2.402-12.41-10.789-10.008-18.725l33.527-110.579l79.764-263.071C313.003,19.225,338.934,0,368.828,0h59.197
	C436.312,0,443.037,6.725,443.037,15.012z"/>
<path style="fill:#FFCE6C;" d="M443.037,15.012c0,8.297-6.725,15.012-15.012,15.012h-59.197c-16.583,0-30.965,10.669-35.799,26.531
	L224.542,414.392V310.909l79.764-263.071C313.003,19.225,338.934,0,368.828,0h59.197C436.312,0,443.037,6.725,443.037,15.012z"/>
<g>
</g>
<g>
</g>
<g>
</g>
<g>
</g>
<g>
</g>
<g>
</g>
<g>
</g>
<g>
</g>
<g>
</g>
<g>
</g>
<g>
</g>
<g>
</g>
<g>
</g>
<g>
</g>
<g>
</g>
</svg>
