<?xml version="1.0" encoding="iso-8859-1"?>
<!-- Generator: Adobe Illustrator 19.0.0, SVG Export Plug-In . SVG Version: 6.00 Build 0)  -->
<svg version="1.1" id="Layer_1" xmlns="http://www.w3.org/2000/svg" xmlns:xlink="http://www.w3.org/1999/xlink" x="0px" y="0px"
	 viewBox="0 0 512 512" style="enable-background:new 0 0 512 512;" xml:space="preserve">
<path style="fill:#57BAB7;" d="M343.811,30.522c-16.527,0-29.973,13.446-29.973,29.973v140.883l8.44,11.253l8.44-11.253V60.495
	c0-7.22,5.874-13.094,13.094-13.094c7.22,0,13.094,5.874,13.094,13.094c0,4.661,3.778,8.44,8.44,8.44s8.44-3.779,8.44-8.44
	C373.783,43.968,360.337,30.522,343.811,30.522z"/>
<path style="fill:#FFD3C7;" d="M0,201.377c0,141.385,114.615,256,256,256s256-114.615,256-256H330.717l-8.441,11.253l-8.438-11.253
	H0z"/>
<path style="fill:#FF709D;" d="M36.307,235.135C52.571,341.855,144.736,423.619,256,423.619s203.429-81.764,219.693-188.484
	L36.307,235.135L36.307,235.135z"/>
<path style="fill:#E60048;" d="M313.838,235.135v85.81H181.283c0,41.265,33.452,74.717,74.717,74.717
	c41.265,0,74.717-33.452,74.717-74.717v-85.81l-8.44-11.253L313.838,235.135z"/>
<g>
	<path style="fill:#FF709D;" d="M325.884,447.72H186.116c-18.645,0-33.758,15.114-33.758,33.758h207.285
		C359.642,462.833,344.529,447.72,325.884,447.72z"/>
	<rect x="313.839" y="201.379" style="fill:#FF709D;" width="16.879" height="33.757"/>
</g>
<g>
</g>
<g>
</g>
<g>
</g>
<g>
</g>
<g>
</g>
<g>
</g>
<g>
</g>
<g>
</g>
<g>
</g>
<g>
</g>
<g>
</g>
<g>
</g>
<g>
</g>
<g>
</g>
<g>
</g>
</svg>
