<?xml version="1.0" encoding="iso-8859-1"?>
<!-- Generator: Adobe Illustrator 19.0.0, SVG Export Plug-In . SVG Version: 6.00 Build 0)  -->
<svg version="1.1" id="Layer_1" xmlns="http://www.w3.org/2000/svg" xmlns:xlink="http://www.w3.org/1999/xlink" x="0px" y="0px"
	 viewBox="0 0 512 512" style="enable-background:new 0 0 512 512;" xml:space="preserve">
<polygon style="fill:#543F29;" points="299.058,110.911 316.122,0 195.879,0 212.942,110.911 "/>
<polygon style="fill:#382A1B;" points="256,0 256,110.911 299.058,110.911 316.122,0 "/>
<path style="fill:#48A63A;" d="M318.967,183.168V85.274H193.033v97.894c-36.388,21.976-58.626,61.034-58.626,104.042V512h243.187
	V287.21C377.593,244.201,355.354,205.144,318.967,183.168z"/>
<path style="fill:#3D8C31;" d="M318.967,183.168V85.274H256V512h121.593V287.21C377.593,244.201,355.354,205.144,318.967,183.168z"
	/>
<rect x="175" y="78.956" style="fill:#60DD4D;" width="162" height="53.3"/>
<path style="fill:#FFF1AB;" d="M378.087,277.333H133.913c-0.263,3.266-0.413,6.558-0.413,9.876v150.124h245V287.21
	C378.5,283.891,378.351,280.6,378.087,277.333z"/>
<path style="fill:#FFE981;" d="M378.087,277.333H256v160h122.5V287.21C378.5,283.891,378.351,280.599,378.087,277.333z"/>
<polygon style="fill:#543F29;" points="301.273,333.273 280.06,312.061 256,336.121 231.94,312.061 210.727,333.273 
	234.787,357.334 210.727,381.394 231.94,402.607 256,378.547 280.06,402.607 301.273,381.394 277.213,357.334 "/>
<polygon style="fill:#382A1B;" points="301.273,333.273 280.06,312.061 256,336.121 256,378.547 280.06,402.607 301.273,381.394 
	277.213,357.334 "/>
<g>
</g>
<g>
</g>
<g>
</g>
<g>
</g>
<g>
</g>
<g>
</g>
<g>
</g>
<g>
</g>
<g>
</g>
<g>
</g>
<g>
</g>
<g>
</g>
<g>
</g>
<g>
</g>
<g>
</g>
</svg>
