<?xml version="1.0" encoding="iso-8859-1"?>
<!-- Generator: Adobe Illustrator 19.0.0, SVG Export Plug-In . SVG Version: 6.00 Build 0)  -->
<svg version="1.1" id="Layer_1" xmlns="http://www.w3.org/2000/svg" xmlns:xlink="http://www.w3.org/1999/xlink" x="0px" y="0px"
	 viewBox="0 0 512.004 512.004" style="enable-background:new 0 0 512.004 512.004;" xml:space="preserve">
<g>
	<rect x="183.795" y="414.081" style="fill:#E4EAF5;" width="144.419" height="97.923"/>
	<path style="fill:#E4EAF5;" d="M287.001,74.277h-62.009c0,64.426-41.202,76.823-41.202,130.011v22.053h144.413v-22.053
		C328.203,151.1,287.001,138.703,287.001,74.277z"/>
</g>
<rect x="183.795" y="223.197" style="fill:#FF6465;" width="144.419" height="194.014"/>
<g>
	<ellipse style="fill:#F2E9DC;" cx="255.999" cy="289.215" rx="20.16" ry="30.99"/>
	<path style="fill:#F2E9DC;" d="M298.131,360.746h-84.268c-4.337,0-7.851-3.514-7.851-7.851c0-4.337,3.514-7.851,7.851-7.851h84.268
		c4.337,0,7.851,3.514,7.851,7.851C305.982,357.232,302.467,360.746,298.131,360.746z"/>
	<path style="fill:#F2E9DC;" d="M298.131,391.534h-84.268c-4.337,0-7.851-3.514-7.851-7.851s3.514-7.851,7.851-7.851h84.268
		c4.337,0,7.851,3.514,7.851,7.851S302.467,391.534,298.131,391.534z"/>
</g>
<path style="opacity:0.1;fill:#171D26;enable-background:new    ;" d="M287.001,74.277h-62.009c0,26.018-6.72,43.549-14.733,58.71
	c4.411,2.306,9.421,3.618,14.733,3.618H287c5.312,0,10.322-1.312,14.733-3.617C293.722,117.827,287.001,100.296,287.001,74.277z"/>
<path style="fill:#FF6465;" d="M287.001,0h-62.008c-4.337,0-7.851,3.514-7.851,7.851v96.828c0,4.337,3.514,7.851,7.851,7.851h62.008
	c4.337,0,7.851-3.514,7.851-7.851V7.851C294.852,3.514,291.338,0,287.001,0z"/>
<path style="opacity:0.2;fill:#171D26;enable-background:new    ;" d="M217.286,204.289c0-31.708,14.643-48.922,26.47-71.301
	c3.822-7.194,7.104-14.661,9.522-22.447c-1.616-1.438-2.64-3.528-2.64-5.861V7.851c0-4.337,3.514-7.851,7.851-7.851h-33.496
	c-4.337,0-7.851,3.514-7.851,7.851v96.828c0,2.333,1.024,4.422,2.64,5.861c-2.418,7.787-5.701,15.253-9.522,22.447
	c-11.827,22.38-26.47,39.593-26.47,71.301v212.929v94.783h33.496v-94.783V204.289z"/>
<g>
</g>
<g>
</g>
<g>
</g>
<g>
</g>
<g>
</g>
<g>
</g>
<g>
</g>
<g>
</g>
<g>
</g>
<g>
</g>
<g>
</g>
<g>
</g>
<g>
</g>
<g>
</g>
<g>
</g>
</svg>
