<?xml version="1.0" encoding="iso-8859-1"?>
<!-- Generator: Adobe Illustrator 19.0.0, SVG Export Plug-In . SVG Version: 6.00 Build 0)  -->
<svg version="1.1" id="Capa_1" xmlns="http://www.w3.org/2000/svg" xmlns:xlink="http://www.w3.org/1999/xlink" x="0px" y="0px"
	 viewBox="0 0 512 512" style="enable-background:new 0 0 512 512;" xml:space="preserve">
<g>
	<path style="fill:#10BB67;" d="M496,452v15c0,24.901-20.099,45-45,45H301c-24.901,0-45-20.099-45-45v-15l30-30h180L496,452z"/>
	<path style="fill:#10BB67;" d="M480.399,242L460,272H292l-24.9-17.999C273.401,235.7,283.299,214,295.6,197.5
		c9.901-13.799,16.5-29.7,19.2-46.5l31.2-30h60l31.199,30c2.701,16.8,9.3,32.701,19.2,46.5C466.601,211,474.101,226.7,480.399,242z"
		/>
</g>
<g>
	<path style="fill:#0CA656;" d="M496,452v15c0,24.901-20.099,45-45,45h-75v-90h90L496,452z"/>
	<path style="fill:#0CA656;" d="M480.399,242L460,272h-84V121h30l31.199,30c2.701,16.8,9.3,32.701,19.2,46.5
		C466.601,211,474.101,226.7,480.399,242z"/>
</g>
<path style="fill:#FEA832;" d="M496,318.8c0,108.3,0,91.8,0,133.2H256V318.8c0-22.5,5.4-51.301,15.601-76.8H480.4
	C490.901,267.499,496,296.3,496,318.8z"/>
<path style="fill:#FE9923;" d="M496,318.8c0,108.3,0,91.8,0,133.2H376V242h104.399C490.901,267.499,496,296.3,496,318.8z"/>
<path style="fill:#C5C9F7;" d="M226,497c0,8.401-6.599,15-15,15H31c-8.401,0-15-6.599-15-15s6.599-15,15-15
	c24.901,0,45-20.099,45-45v-65.099c0-8.401,6.599-15,15-15h60c8.401,0,15,6.599,15,15V437c0,24.901,20.099,45,45,45
	C219.401,482,226,488.599,226,497z"/>
<path style="fill:#A8AFF1;" d="M226,497c0,8.401-6.599,15-15,15h-90V356.901h30c8.401,0,15,6.599,15,15V437
	c0,24.901,20.099,45,45,45C219.401,482,226,488.599,226,497z"/>
<path style="fill:#E1E4FB;" d="M221.499,271.099L186.7,283.1L121,293.301l-72.299,11.1L21.7,262.099
	c2.401-9,22.2-90.099,24.901-99.699c1.5-6.601,7.5-11.4,14.399-11.4h120c6.899,0,12.9,4.799,14.399,11.4
	C200.2,180.7,218.5,252.8,221.499,271.099z"/>
<path style="fill:#C5C9F7;" d="M221.499,271.099L186.7,283.1L121,293.301V151h60c6.899,0,12.9,4.799,14.399,11.4
	C200.2,180.7,218.5,252.8,221.499,271.099z"/>
<path style="fill:#FEA832;" d="M222.7,303.199C216.4,358.4,169.6,392,121,392c-52.2,0-102.001-39-102.299-100.201
	c-0.3-9.899,0.599-19.799,2.999-29.7l1.5-5.4c23.701,25.201,51.601,24.3,73.5,4.2c7.5-6.899,15.899-12.301,24.3-15.901
	c28.5-12.599,60.3-7.2,85.8,15.901c4.801,4.2,9.6,7.5,14.7,10.199C223.299,281.901,223.9,292.7,222.7,303.199z"/>
<path style="fill:#FE9923;" d="M222.7,303.199C216.4,358.4,169.6,392,121,392V244.999c28.5-12.599,60.3-7.2,85.8,15.901
	c4.801,4.2,9.6,7.5,14.7,10.199C223.299,281.901,223.9,292.7,222.7,303.199z"/>
<path style="fill:#994C0F;" d="M436,15v45l-30,30h-60l-30-30V15c0-8.401,6.599-15,15-15h90C429.401,0,436,6.599,436,15z"/>
<path style="fill:#713708;" d="M436,15v45l-30,30h-30V0h45C429.401,0,436,6.599,436,15z"/>
<path style="fill:#FEA832;" d="M437.199,151H314.801c0.599-5.099,1.199-10.499,1.199-15.901V60h120v75.099
	C436,140.501,436.601,145.901,437.199,151z"/>
<path style="fill:#FE9923;" d="M437.199,151H376V60h60v75.099C436,140.501,436.601,145.901,437.199,151z"/>
<path style="fill:#10BB67;" d="M376,302c-24.901,0-45,20.099-45,45s20.099,45,45,45s45-20.099,45-45S400.901,302,376,302z"/>
<path style="fill:#0CA656;" d="M421,347c0,24.901-20.099,45-45,45v-90C400.901,302,421,322.099,421,347z"/>
<g>
</g>
<g>
</g>
<g>
</g>
<g>
</g>
<g>
</g>
<g>
</g>
<g>
</g>
<g>
</g>
<g>
</g>
<g>
</g>
<g>
</g>
<g>
</g>
<g>
</g>
<g>
</g>
<g>
</g>
</svg>
