<?xml version="1.0" encoding="iso-8859-1"?>
<!-- Generator: Adobe Illustrator 19.0.0, SVG Export Plug-In . SVG Version: 6.00 Build 0)  -->
<svg version="1.1" id="Layer_1" xmlns="http://www.w3.org/2000/svg" xmlns:xlink="http://www.w3.org/1999/xlink" x="0px" y="0px"
	 viewBox="0 0 512.001 512.001" style="enable-background:new 0 0 512.001 512.001;" xml:space="preserve">
<path style="fill:#FF4B4E;" d="M201.14,139.87V13.385c0-7.376-5.98-13.356-13.355-13.356h-21.701
	c-7.375,0-13.355,5.98-13.355,13.356v186.854c-25.933,9.891-44.576,35.341-43.711,65.563c-0.077,1.223-0.05,229.043-0.05,230.88
	c0,8.459,6.857,15.318,15.317,15.318h105.301c8.461,0,15.317-6.859,15.317-15.318c0-1.464,0-227.954,0-232.93
	c0-29.008-18.179-53.757-43.76-63.514v-32.551"/>
<path style="fill:#EA1C31;" d="M175.833,204.025l-0.005-0.004c4.497-2.18,8.208-7.319,8.208-14.065V13.385
	c0-5.68,3.554-10.521,8.553-12.451c-3.081-1.19-2.809-0.905-26.505-0.905c-7.375,0-13.355,5.98-13.355,13.356V200.24
	c-25.933,9.891-44.576,35.341-43.711,65.563c-0.077,1.223-0.05,229.042-0.05,230.881c0,8.459,6.857,15.318,15.317,15.318h31.309
	c-8.461,0-15.318-6.859-15.318-15.318c0-1.523,0-227.953,0-232.93C140.276,237.956,154.658,215.538,175.833,204.025z"/>
<path style="fill:#FFC373;" d="M108.967,287.125v173.625H244.9V287.125C243.097,287.125,113.548,287.125,108.967,287.125z"/>
<ellipse style="fill:#19A9F9;" cx="176.939" cy="373.937" rx="28.937" ry="44.852"/>
<rect x="108.971" y="287.129" style="fill:#F26722;" width="31.307" height="173.627"/>
<path style="fill:#078CD6;" d="M192.588,336.224c-19.287-19.275-44.591,2.418-44.591,37.714c0,35.367,25.357,56.94,44.591,37.713
	C174.894,393.968,174.889,353.912,192.588,336.224z"/>
<path style="fill:#7C5437;" d="M201.14,84.563V13.385c0-7.376-5.98-13.356-13.355-13.356h-21.701
	c-7.375,0-13.355,5.98-13.355,13.356v71.179L201.14,84.563L201.14,84.563z"/>
<path style="fill:#6B462C;" d="M184.035,13.385c0-5.68,3.554-10.521,8.553-12.451c-3.063-1.176-2.846-0.905-26.505-0.905
	c-7.375,0-13.355,5.98-13.355,13.356v71.179h31.307V13.385z"/>
<rect x="152.726" y="84.696" style="fill:#FFCA54;" width="48.407" height="29.679"/>
<rect x="152.726" y="84.696" style="fill:#F9B24B;" width="31.307" height="29.679"/>
<path style="fill:#ECEEF0;" d="M389.684,322.556H287.438c-7.376,0-13.356,5.98-13.356,13.355c0,42.188-0.539,44.6,1.828,53.79
	c6.442,25.033,29.163,43.53,56.205,43.53h12.895c32.05,0,58.029-25.981,58.029-58.032c0-13.856,0-25.385,0-39.288
	C403.039,328.536,397.06,322.556,389.684,322.556z"/>
<g>
	<path style="fill:#BAD8E8;" d="M305.885,375.199c0-13.856,0-25.385,0-39.288c0-7.375,5.979-13.355,13.355-13.355h-31.802
		c-7.376,0-13.356,5.98-13.356,13.355c0,13.866,0,25.453,0,39.288c0,32.043,25.979,58.032,58.033,58.032
		c13.999,0,16.54,0.176,22.349-0.774C326.875,427.936,305.885,403.994,305.885,375.199z"/>
	<path style="fill:#BAD8E8;" d="M359.79,495.305h-12.881v-62.074c0-4.61-3.737-8.348-8.348-8.348s-8.348,3.737-8.348,8.348v62.074
		h-12.88c-4.61,0-8.348,3.736-8.348,8.348c0,4.612,3.737,8.348,8.348,8.348h42.457c4.611,0,8.348-3.736,8.348-8.348
		C368.138,499.041,364.401,495.305,359.79,495.305z"/>
</g>
<path style="fill:#FF4B4E;" d="M351.38,365.59h-77.299c0,9.918-0.368,15.584,1.828,24.11c6.442,25.033,29.163,43.53,56.205,43.53
	h12.895c32.05,0,58.029-25.981,58.029-58.032v-9.608h-23.462"/>
<path style="fill:#EA1C31;" d="M354.464,432.456c-27.589-4.52-48.58-28.463-48.58-57.258v-9.608h-31.803v9.608
	c0,32.043,25.979,58.032,58.033,58.032C344.245,433.231,348.158,433.49,354.464,432.456z"/>
<g>
</g>
<g>
</g>
<g>
</g>
<g>
</g>
<g>
</g>
<g>
</g>
<g>
</g>
<g>
</g>
<g>
</g>
<g>
</g>
<g>
</g>
<g>
</g>
<g>
</g>
<g>
</g>
<g>
</g>
</svg>
